<svg width="48" height="48" viewBox="0 0 48 48" fill="none" xmlns="http://www.w3.org/2000/svg">
<g clip-path="url(#clip0_1277_12908)">
<path d="M46.5487 12.1744C45.2897 7.53562 40.4653 2.71219 35.8266 1.45219C32.9831 0.7425 29.1722 0.0121875 24 0C18.8278 0.013125 15.0178 0.7425 12.1734 1.45219C7.53563 2.71219 2.71125 7.53562 1.45219 12.1744C0.7425 15.0178 0.013125 18.8288 0 24C0.013125 29.1722 0.7425 32.9822 1.45219 35.8266C2.71219 40.4653 7.53562 45.2887 12.1744 46.5487C15.0188 47.2584 18.8288 47.9878 24.0009 48.0009C29.1722 47.9878 32.9831 47.2584 35.8275 46.5487C40.4663 45.2887 45.2897 40.4653 46.5497 35.8266C47.2594 32.9831 47.9888 29.1722 48.0019 24C47.9888 18.8278 47.2594 15.0178 46.5497 12.1734L46.5487 12.1744Z" fill="#FFF1EB"/>
<path d="M41.6889 34.3334C40.7008 32.6853 36.9161 30.9706 33.2777 30.5234C31.0464 30.2713 28.0577 30.0116 24.0002 30.0078C19.9427 30.0125 16.953 30.2713 14.7227 30.5234C11.0842 30.9716 7.29955 32.6853 6.31143 34.3334C5.75455 35.3441 5.18268 36.6978 5.17236 38.5363C5.18268 40.3737 5.75455 41.7284 6.31143 42.7391C7.29955 44.3872 11.0842 46.1019 14.7227 46.5491C16.9539 46.8013 19.9436 47.0609 24.0002 47.0647C28.0577 47.06 31.0464 46.8003 33.2777 46.5491C36.917 46.1019 40.7008 44.3872 41.6889 42.7391C42.2449 41.7284 42.8177 40.3747 42.828 38.5363C42.8177 36.6988 42.2449 35.3441 41.6889 34.3334Z" fill="url(#paint0_radial_1277_12908)"/>
<path d="M39.6093 14.8242C39.0093 12.1158 36.3843 9.63516 33.6683 9.10829C32.0137 8.77735 27.3983 8.3686 24.3458 8.40235C21.2933 8.3686 16.678 8.77735 15.0233 9.10829C12.3074 9.63516 9.6824 12.1158 9.0824 14.8242C8.74115 16.4686 8.40553 19.9055 8.3999 22.9589C8.40553 26.0124 8.74021 29.4492 9.0824 31.0936C9.6824 33.802 12.3074 36.2827 15.0233 36.8095C15.9168 36.9886 17.6737 37.1892 19.5805 37.3317C20.1458 37.3317 20.7458 37.3317 21.3458 37.3317C23.1458 37.3317 22.5458 37.3317 23.7458 37.3317C24.9458 37.3317 24.3458 37.3317 26.0324 37.3317C26.7458 37.3317 26.7458 37.3317 27.3458 37.3317C27.9458 37.3317 28.5458 37.3317 29.1093 37.3317C31.0171 37.1892 32.774 36.9886 33.6674 36.8095C36.3833 36.2827 39.0083 33.802 39.6083 31.0936C39.9496 29.4492 40.2852 26.0124 40.2908 22.9589C40.2852 19.9055 39.9515 16.4686 39.6093 14.8242Z" fill="url(#paint1_linear_1277_12908)"/>
<path d="M21.6569 15.3996H21.6566L18.0779 15.3996L18.0777 15.3996C17.6859 15.4001 17.3102 15.5559 17.0332 15.833C16.7561 16.11 16.6003 16.4857 16.5998 16.8775V16.8777L16.5998 20.4564L16.5998 20.4567C16.6003 20.8485 16.7561 21.2241 17.0332 21.5011C17.3102 21.7782 17.6859 21.9341 18.0777 21.9345H18.0779L21.6566 21.9345L21.6569 21.9345C22.0487 21.9341 22.4243 21.7782 22.7013 21.5011C22.9784 21.2241 23.1342 20.8485 23.1347 20.4567V20.4564L23.1347 16.8777L23.1347 16.8775C23.1342 16.4857 22.9784 16.11 22.7013 15.833C22.4243 15.5559 22.0487 15.4001 21.6569 15.3996ZM29.9219 15.3996H29.9217L26.343 15.3996L26.3428 15.3996C25.9509 15.4001 25.5753 15.5559 25.2983 15.833C25.0212 16.11 24.8654 16.4857 24.8649 16.8775V16.8777V20.4564V20.4567C24.8654 20.8485 25.0212 21.2241 25.2983 21.5011C25.5753 21.7782 25.9509 21.9341 26.3428 21.9345H26.343L29.9217 21.9345L29.9219 21.9345C30.3137 21.9341 30.6894 21.7782 30.9664 21.5011C31.2435 21.2241 31.3993 20.8485 31.3998 20.4567V20.4564V16.8777V16.8775C31.3993 16.4857 31.2435 16.11 30.9664 15.833C30.6894 15.5559 30.3137 15.4001 29.9219 15.3996ZM21.6569 23.6647H21.6566H18.0779H18.0777C17.6859 23.6652 17.3102 23.821 17.0332 24.0981C16.7561 24.3751 16.6003 24.7507 16.5998 25.1426V25.1428L16.5998 28.7215L16.5998 28.7217C16.6003 29.1136 16.7561 29.4892 17.0332 29.7662C17.3102 30.0433 17.6859 30.1991 18.0777 30.1996H18.0779H21.6566H21.6569C22.0487 30.1991 22.4243 30.0433 22.7013 29.7662C22.9784 29.4892 23.1342 29.1136 23.1347 28.7217V28.7215L23.1347 25.1428L23.1347 25.1426C23.1342 24.7507 22.9784 24.3751 22.7013 24.0981C22.4243 23.821 22.0487 23.6652 21.6569 23.6647ZM22.2235 20.4564C22.2235 20.6068 22.1638 20.7509 22.0574 20.8573C21.9511 20.9636 21.807 21.0233 21.6566 21.0233H18.0779C17.9276 21.0233 17.7834 20.9636 17.6771 20.8573C17.5708 20.7509 17.511 20.6068 17.511 20.4564V16.8777C17.511 16.7274 17.5708 16.5832 17.6771 16.4769C17.7834 16.3706 17.9276 16.3109 18.0779 16.3109H21.6566C21.807 16.3109 21.9511 16.3706 22.0574 16.4769C22.1638 16.5832 22.2235 16.7274 22.2235 16.8777V20.4564ZM30.4886 20.4564C30.4886 20.6068 30.4288 20.7509 30.3225 20.8573C30.2162 20.9636 30.072 21.0233 29.9217 21.0233H26.343C26.1927 21.0233 26.0485 20.9636 25.9422 20.8573C25.8359 20.7509 25.7761 20.6068 25.7761 20.4564V16.8777C25.7761 16.7274 25.8359 16.5832 25.9422 16.4769C26.0485 16.3706 26.1927 16.3109 26.343 16.3109H29.9217C30.072 16.3109 30.2162 16.3706 30.3225 16.4769C30.4288 16.5832 30.4886 16.7274 30.4886 16.8777V20.4564ZM22.2235 28.7215C22.2235 28.8718 22.1638 29.016 22.0574 29.1223C21.9511 29.2286 21.807 29.2884 21.6566 29.2884H18.0779C17.9276 29.2884 17.7834 29.2286 17.6771 29.1223C17.5708 29.016 17.511 28.8718 17.511 28.7215V25.1428C17.511 24.9925 17.5708 24.8483 17.6771 24.742C17.7834 24.6357 17.9276 24.5759 18.0779 24.5759H21.6566C21.807 24.5759 21.9511 24.6357 22.0574 24.742C22.1638 24.8483 22.2235 24.9925 22.2235 25.1428V28.7215Z" fill="white" stroke="white" stroke-width="0.4"/>
<path d="M28.1531 23.6633H28.1529C27.5067 23.6633 26.8749 23.8549 26.3376 24.2139C25.8003 24.573 25.3815 25.0833 25.1342 25.6803C24.8869 26.2774 24.8222 26.9344 24.9482 27.5682C25.0743 28.202 25.3855 28.7842 25.8425 29.2412C26.2994 29.6981 26.8816 30.0093 27.5155 30.1354C28.1493 30.2615 28.8063 30.1968 29.4033 29.9495C30.0004 29.7022 30.5107 29.2834 30.8697 28.746C31.2287 28.2087 31.4204 27.577 31.4204 26.9307L31.4204 26.9305C31.4194 26.0643 31.0749 25.2338 30.4624 24.6213C29.8499 24.0087 29.0194 23.6642 28.1531 23.6633ZM28.1527 29.287C27.6868 29.2869 27.2313 29.1487 26.8439 28.8899C26.4564 28.631 26.1544 28.263 25.976 27.8324C25.7977 27.4019 25.7511 26.9281 25.842 26.4711C25.9329 26.014 26.1573 25.5942 26.4868 25.2646C26.8163 24.9351 27.2362 24.7107 27.6932 24.6198C28.1503 24.5289 28.6241 24.5755 29.0546 24.7539C29.4851 24.9322 29.8531 25.2342 30.112 25.6217C30.3709 26.0091 30.5091 26.4646 30.5091 26.9305C30.5084 27.5553 30.26 28.1542 29.8182 28.596C29.3764 29.0378 28.7774 29.2863 28.1527 29.287Z" fill="white" stroke="white" stroke-width="0.4"/>
</g>
<defs>
<radialGradient id="paint0_radial_1277_12908" cx="0" cy="0" r="1" gradientUnits="userSpaceOnUse" gradientTransform="translate(24.0002 38.2324) scale(18.8278 8.47252)">
<stop stop-color="#FE7737" stop-opacity="0.6"/>
<stop offset="1" stop-color="#FE7837" stop-opacity="0"/>
</radialGradient>
<linearGradient id="paint1_linear_1277_12908" x1="36.1958" y1="34.8098" x2="12.4958" y2="11.1098" gradientUnits="userSpaceOnUse">
<stop stop-color="#FE7838"/>
<stop offset="0.54" stop-color="#FE7636"/>
<stop offset="1" stop-color="#FFAD8A"/>
</linearGradient>
<clipPath id="clip0_1277_12908">
<rect width="48" height="48" fill="white"/>
</clipPath>
</defs>
</svg>
