<svg width="48" height="48" viewBox="0 0 48 48" fill="none" xmlns="http://www.w3.org/2000/svg">
<g clip-path="url(#clip0_1277_12931)">
<path d="M46.5487 12.1744C45.2897 7.53562 40.4653 2.71219 35.8266 1.45219C32.9831 0.7425 29.1722 0.0121875 24 0C18.8278 0.013125 15.0178 0.7425 12.1734 1.45219C7.53563 2.71219 2.71125 7.53562 1.45219 12.1744C0.7425 15.0178 0.013125 18.8287 0 24C0.013125 29.1722 0.7425 32.9822 1.45219 35.8266C2.71219 40.4653 7.53562 45.2887 12.1744 46.5487C15.0188 47.2584 18.8288 47.9878 24.0009 48.0009C29.1722 47.9878 32.9831 47.2584 35.8275 46.5487C40.4663 45.2887 45.2897 40.4653 46.5497 35.8266C47.2594 32.9831 47.9888 29.1722 48.0019 24C47.9888 18.8278 47.2594 15.0178 46.5497 12.1734L46.5487 12.1744Z" fill="#EDF7FF"/>
<path d="M41.6889 34.3334C40.7008 32.6853 36.9161 30.9706 33.2777 30.5234C31.0464 30.2713 28.0577 30.0116 24.0002 30.0078C19.9427 30.0125 16.953 30.2713 14.7227 30.5234C11.0842 30.9716 7.29955 32.6853 6.31143 34.3334C5.75455 35.3441 5.18268 36.6978 5.17236 38.5363C5.18268 40.3738 5.75455 41.7284 6.31143 42.7391C7.29955 44.3872 11.0842 46.1019 14.7227 46.5491C16.9539 46.8013 19.9436 47.0609 24.0002 47.0647C28.0577 47.06 31.0464 46.8003 33.2777 46.5491C36.9171 46.1019 40.7008 44.3872 41.6889 42.7391C42.2449 41.7284 42.8177 40.3747 42.828 38.5363C42.8177 36.6988 42.2449 35.3441 41.6889 34.3334Z" fill="url(#paint0_radial_1277_12931)"/>
<path d="M39.2636 14.4788C38.6636 11.7703 36.0386 9.2897 33.3226 8.76283C31.668 8.43189 27.0526 8.02314 24.0001 8.05689C20.9476 8.02314 16.3323 8.43189 14.6776 8.76283C11.9617 9.2897 9.3367 11.7703 8.7367 14.4788C8.39545 16.1231 8.05982 18.36 8.0542 21.4135C8.05982 24.4669 8.39451 26.7038 8.7367 28.3481C9.3367 31.0566 11.9617 33.5372 14.6776 34.0641C15.5711 34.2431 17.3279 34.4438 19.2348 34.5863C19.4514 34.9256 19.6848 35.2866 19.9379 35.67C20.9504 37.2028 21.7248 38.2716 22.3117 39.016C23.2886 40.2544 24.7098 40.2544 25.6867 39.016C26.2736 38.2716 27.048 37.2038 28.0604 35.67C28.3136 35.2866 28.548 34.9256 28.7636 34.5863C30.6714 34.4438 32.4283 34.2431 33.3217 34.0641C36.0376 33.5372 38.6626 31.0566 39.2626 28.3481C39.6039 26.7038 39.9395 24.4669 39.9451 21.4135C39.9395 18.36 39.6048 16.1231 39.2626 14.4788H39.2636Z" fill="url(#paint1_linear_1277_12931)"/>
<path d="M17.4173 21.3333V21.3333C17.4173 22.6356 17.8034 23.9087 18.5269 24.9915C19.2504 26.0744 20.2787 26.9184 21.4819 27.4168C22.6851 27.9151 24.009 28.0455 25.2863 27.7914C26.5635 27.5374 27.7368 26.9102 28.6576 25.9893L17.4173 21.3333ZM17.4173 21.3333C17.4173 21.1057 17.3269 20.8874 17.166 20.7265C17.005 20.5655 16.7868 20.4751 16.5592 20.4751C16.3316 20.4751 16.1133 20.5655 15.9523 20.7265C15.7914 20.8874 15.701 21.1057 15.701 21.3333L17.4173 21.3333ZM29.2753 25.2768L29.2802 25.271C29.4211 25.1019 29.6217 24.9935 29.8403 24.968C30.059 24.9425 30.279 25.0019 30.4552 25.134C30.6313 25.266 30.7499 25.4607 30.7867 25.6777C30.8234 25.8948 30.7754 26.1176 30.6526 26.3003L30.648 26.3071L30.6431 26.3137C30.4067 26.6269 30.149 26.9236 29.8718 27.2014C29.1026 27.9748 28.1878 28.5879 27.1801 29.0055C26.1726 29.423 25.0923 29.6366 24.0017 29.634C24.0014 29.634 24.0012 29.634 24.0009 29.634L24.0016 29.334L29.2753 25.2768ZM29.2753 25.2768L29.2707 25.2829M29.2753 25.2768L29.2707 25.2829M29.2707 25.2829C29.0832 25.5325 28.8783 25.7685 28.6576 25.9893L29.2707 25.2829ZM30.5859 21.3333V21.3333C30.5859 21.5609 30.6763 21.7792 30.8373 21.9401C30.9982 22.1011 31.2165 22.1915 31.4441 22.1915C31.6717 22.1915 31.89 22.1011 32.0509 21.9401C32.2119 21.7792 32.3023 21.5609 32.3023 21.3333V21.3333C32.302 19.6915 31.8149 18.0867 30.9026 16.7218C29.9902 15.3569 28.6936 14.2932 27.1767 13.6652C25.6598 13.0373 23.9908 12.8732 22.3806 13.1938C20.7705 13.5144 19.2916 14.3053 18.1309 15.4664L18.1306 15.4668C17.8539 15.7445 17.5963 16.0407 17.3597 16.3534L17.3597 16.3534L17.3589 16.3544C17.2223 16.5365 17.1637 16.7654 17.1959 16.9907C17.2281 17.216 17.3484 17.4193 17.5305 17.5559L17.7105 17.3159L17.5305 17.5559C17.7126 17.6924 17.9415 17.7511 18.1668 17.7189C18.3919 17.6867 18.5951 17.5665 18.7317 17.3846C18.9196 17.1348 19.1248 16.8985 19.3457 16.6773C20.2665 15.7564 21.4397 15.1293 22.717 14.8752C23.9943 14.6211 25.3182 14.7515 26.5214 15.2499C27.7245 15.7482 28.7529 16.5922 29.4764 17.6751C30.1999 18.7579 30.586 20.031 30.5859 21.3333Z" fill="white" stroke="white" stroke-width="0.6"/>
<path d="M29.7096 28.2558C29.8706 28.4168 30.0889 28.5072 30.3165 28.5072C30.5441 28.5072 30.7624 28.4168 30.9233 28.2558C31.0842 28.0949 31.1747 27.8766 31.1747 27.649V25.5443C31.1747 25.3167 31.0842 25.0984 30.9233 24.9374C30.7624 24.7765 30.5441 24.6861 30.3165 24.6861H28.211C27.9834 24.6861 27.7651 24.7765 27.6042 24.9374C27.4432 25.0984 27.3528 25.3167 27.3528 25.5443C27.3528 25.7719 27.4432 25.9901 27.6042 26.1511C27.7651 26.312 27.9834 26.4024 28.211 26.4024H29.4583V27.649C29.4583 27.8766 29.5487 28.0949 29.7096 28.2558ZM17.6866 17.982H19.7913C20.0189 17.982 20.2372 17.8916 20.3982 17.7307C20.5591 17.5697 20.6495 17.3515 20.6495 17.1239C20.6495 16.8962 20.5591 16.678 20.3982 16.517C20.2372 16.3561 20.0189 16.2657 19.7913 16.2657H18.5448V15.0191C18.5448 14.7915 18.4544 14.5732 18.2934 14.4123C18.1325 14.2514 17.9142 14.1609 17.6866 14.1609C17.459 14.1609 17.2407 14.2514 17.0798 14.4123C16.9188 14.5732 16.8284 14.7915 16.8284 15.0191V17.1239C16.8284 17.3515 16.9188 17.5697 17.0798 17.7307C17.2407 17.8916 17.459 17.982 17.6866 17.982Z" fill="white" stroke="white" stroke-width="0.6"/>
</g>
<defs>
<radialGradient id="paint0_radial_1277_12931" cx="0" cy="0" r="1" gradientUnits="userSpaceOnUse" gradientTransform="translate(24.0002 38.2324) scale(18.8278 8.47252)">
<stop stop-color="#B3DDFF" stop-opacity="0.6"/>
<stop offset="1" stop-color="#B3DDFF" stop-opacity="0"/>
</radialGradient>
<linearGradient id="paint1_linear_1277_12931" x1="35.8501" y1="33.2644" x2="12.1501" y2="9.56439" gradientUnits="userSpaceOnUse">
<stop stop-color="#87C9FF"/>
<stop offset="0.54" stop-color="#2088DC"/>
<stop offset="1" stop-color="#87C9FF"/>
</linearGradient>
<clipPath id="clip0_1277_12931">
<rect width="48" height="48" fill="white"/>
</clipPath>
</defs>
</svg>
