<svg width="48" height="48" viewBox="0 0 48 48" fill="none" xmlns="http://www.w3.org/2000/svg">
<g clip-path="url(#clip0_1277_12921)">
<path d="M46.5487 12.1744C45.2897 7.53562 40.4653 2.71219 35.8266 1.45219C32.9831 0.7425 29.1722 0.0121875 24 0C18.8278 0.013125 15.0178 0.7425 12.1734 1.45219C7.53562 2.71219 2.71125 7.53562 1.45219 12.1744C0.7425 15.0178 0.013125 18.8287 0 24C0.013125 29.1722 0.7425 32.9822 1.45219 35.8266C2.71219 40.4653 7.53562 45.2887 12.1744 46.5487C15.0187 47.2584 18.8287 47.9878 24.0009 48.0009C29.1722 47.9878 32.9831 47.2584 35.8275 46.5487C40.4662 45.2887 45.2897 40.4653 46.5497 35.8266C47.2594 32.9831 47.9887 29.1722 48.0019 24C47.9887 18.8278 47.2594 15.0178 46.5497 12.1734L46.5487 12.1744Z" fill="#FFEDED"/>
<path d="M41.6889 34.3334C40.7008 32.6853 36.9161 30.9706 33.2777 30.5234C31.0464 30.2713 28.0577 30.0116 24.0002 30.0078C19.9427 30.0125 16.953 30.2713 14.7227 30.5234C11.0842 30.9716 7.29955 32.6853 6.31143 34.3334C5.75455 35.3441 5.18268 36.6978 5.17236 38.5363C5.18268 40.3737 5.75455 41.7284 6.31143 42.7391C7.29955 44.3872 11.0842 46.1019 14.7227 46.5491C16.9539 46.8013 19.9436 47.0609 24.0002 47.0647C28.0577 47.06 31.0464 46.8003 33.2777 46.5491C36.9171 46.1019 40.7008 44.3872 41.6889 42.7391C42.2449 41.7284 42.8177 40.3747 42.828 38.5363C42.8177 36.6988 42.2449 35.3441 41.6889 34.3334Z" fill="url(#paint0_radial_1277_12921)"/>
<path d="M39.2636 14.4788C38.6636 11.7703 36.0386 9.2897 33.3226 8.76283C31.668 8.43189 27.0526 8.02314 24.0001 8.05689C20.9476 8.02314 16.3323 8.43189 14.6776 8.76283C11.9617 9.2897 9.3367 11.7703 8.7367 14.4788C8.39545 16.1231 8.05982 18.36 8.0542 21.4135C8.05982 24.4669 8.39451 26.7038 8.7367 28.3481C9.3367 31.0566 11.9617 33.5372 14.6776 34.0641C15.5711 34.2431 17.3279 34.4438 19.2348 34.5863C19.4514 34.9256 19.6848 35.2866 19.9379 35.67C20.9504 37.2028 21.7248 38.2716 22.3117 39.016C23.2886 40.2544 24.7098 40.2544 25.6867 39.016C26.2736 38.2716 27.048 37.2038 28.0604 35.67C28.3136 35.2866 28.548 34.9256 28.7636 34.5863C30.6714 34.4438 32.4283 34.2431 33.3217 34.0641C36.0376 33.5372 38.6626 31.0566 39.2626 28.3481C39.6039 26.7038 39.9395 24.4669 39.9451 21.4135C39.9395 18.36 39.6048 16.1231 39.2626 14.4788H39.2636Z" fill="url(#paint1_linear_1277_12921)"/>
<path d="M28.6185 29.4132C28.2966 29.6012 27.9309 29.7012 27.5581 29.7033L20.249 29.7466C19.684 29.749 19.1411 29.5272 18.7395 29.1298C18.3378 28.7325 18.1102 28.192 18.1067 27.627L18.0958 25.7997C18.1734 24.9761 18.4406 24.1816 18.8767 23.4785C19.3127 22.7755 19.9056 22.1829 20.6089 21.7474C20.6409 21.7203 20.6666 21.6865 20.6841 21.6484C20.7017 21.6103 20.7106 21.5688 20.7103 21.5268C20.71 21.4849 20.7004 21.4435 20.6824 21.4057C20.6643 21.3678 20.6381 21.3344 20.6057 21.3078C19.8966 20.8801 19.2963 20.2939 18.852 19.5952C18.4076 18.8965 18.1312 18.1043 18.0446 17.2807L18.0338 15.4535C18.0319 14.8889 18.2536 14.3465 18.6505 13.945C19.0474 13.5434 19.5871 13.3154 20.1517 13.3107L27.4609 13.2674C28.0258 13.265 28.5687 13.4868 28.9703 13.8841C29.372 14.2815 29.5996 14.822 29.6032 15.387L29.614 17.2143C29.5366 18.0384 29.2693 18.8335 28.833 19.537C28.3967 20.2405 27.8033 20.8333 27.0994 21.2689C27.0671 21.2957 27.0412 21.3293 27.0235 21.3673C27.0058 21.4054 26.9968 21.4468 26.997 21.4888C26.9973 21.5307 27.0068 21.5721 27.025 21.6099C27.0431 21.6477 27.0694 21.681 27.102 21.7075C27.8113 22.1351 28.4118 22.7215 28.8563 23.4204C29.3008 24.1193 29.5772 24.9118 29.6637 25.7355L29.6745 27.5628C29.6764 27.9368 29.5798 28.3047 29.3944 28.6295C29.209 28.9543 28.9414 29.2246 28.6185 29.4132ZM20.0119 15.1795C19.9656 15.2065 19.9273 15.2451 19.9007 15.2916C19.8742 15.3381 19.8603 15.3908 19.8606 15.4443L19.8715 17.2716C19.9718 17.8079 20.1874 18.316 20.5035 18.7607C20.8196 19.2054 21.2286 19.5761 21.7021 19.847C21.9599 20.0432 22.1691 20.2959 22.3137 20.5857C22.4583 20.8755 22.5345 21.1947 22.5362 21.5186C22.538 21.8425 22.4653 22.1624 22.3238 22.4538C22.1824 22.7451 21.9759 23.0001 21.7203 23.199C21.25 23.4753 20.8454 23.8505 20.5344 24.2986C20.2234 24.7466 20.0135 25.2569 19.9191 25.7941L19.9299 27.6214C19.93 27.6614 19.938 27.701 19.9535 27.7379C19.9689 27.7749 19.9915 27.8084 20.0199 27.8366C20.0483 27.8648 20.082 27.8871 20.119 27.9022C20.1561 27.9174 20.1958 27.9251 20.2358 27.9249L27.545 27.8816C27.6254 27.8803 27.7021 27.8475 27.7585 27.7902C27.815 27.7329 27.8467 27.6557 27.8468 27.5753L27.836 25.748C27.7357 25.2117 27.52 24.7036 27.2039 24.2589C26.8879 23.8142 26.4789 23.4435 26.0053 23.1725C25.7474 22.9766 25.538 22.724 25.3932 22.4343C25.2485 22.1445 25.1724 21.8253 25.1707 21.5014C25.169 21.1775 25.2418 20.8576 25.3835 20.5663C25.5252 20.275 25.7319 20.0202 25.9878 19.8216C26.4577 19.5447 26.862 19.1692 27.1728 18.721C27.4836 18.2729 27.6936 17.7626 27.7884 17.2255L27.7775 15.3982C27.7774 15.3582 27.7694 15.3186 27.754 15.2817C27.7385 15.2447 27.716 15.2112 27.6876 15.183C27.6591 15.1548 27.6254 15.1325 27.5884 15.1174C27.5514 15.1022 27.5117 15.0945 27.4717 15.0947L20.1625 15.138C20.1095 15.1387 20.0577 15.153 20.0119 15.1795Z" fill="white"/>
</g>
<defs>
<radialGradient id="paint0_radial_1277_12921" cx="0" cy="0" r="1" gradientUnits="userSpaceOnUse" gradientTransform="translate(24.0002 38.2324) scale(18.8278 8.47252)">
<stop stop-color="#FF6568" stop-opacity="0.6"/>
<stop offset="1" stop-color="#FF6568" stop-opacity="0"/>
</radialGradient>
<linearGradient id="paint1_linear_1277_12921" x1="35.8501" y1="33.2644" x2="12.1501" y2="9.56439" gradientUnits="userSpaceOnUse">
<stop stop-color="#FF6568"/>
<stop offset="0.54" stop-color="#EE2326"/>
<stop offset="1" stop-color="#FFB5B6"/>
</linearGradient>
<clipPath id="clip0_1277_12921">
<rect width="48" height="48" fill="white"/>
</clipPath>
</defs>
</svg>
