<svg width="48" height="48" viewBox="0 0 48 48" fill="none" xmlns="http://www.w3.org/2000/svg">
<g clip-path="url(#clip0_1277_12947)">
<path d="M46.5487 12.1744C45.2897 7.53562 40.4653 2.71219 35.8266 1.45219C32.9831 0.7425 29.1722 0.0121875 24 0C18.8278 0.013125 15.0178 0.7425 12.1734 1.45219C7.53563 2.71219 2.71125 7.53562 1.45219 12.1744C0.7425 15.0178 0.013125 18.8287 0 24C0.013125 29.1722 0.7425 32.9822 1.45219 35.8266C2.71219 40.4653 7.53562 45.2887 12.1744 46.5487C15.0188 47.2584 18.8288 47.9878 24.0009 48.0009C29.1722 47.9878 32.9831 47.2584 35.8275 46.5487C40.4663 45.2887 45.2897 40.4653 46.5497 35.8266C47.2594 32.9831 47.9888 29.1722 48.0019 24C47.9888 18.8278 47.2594 15.0178 46.5497 12.1734L46.5487 12.1744Z" fill="#EDFFEF"/>
<path d="M41.6889 34.3334C40.7008 32.6853 36.9161 30.9706 33.2777 30.5234C31.0464 30.2713 28.0577 30.0116 24.0002 30.0078C19.9427 30.0125 16.953 30.2713 14.7227 30.5234C11.0842 30.9716 7.29955 32.6853 6.31143 34.3334C5.75455 35.3441 5.18268 36.6978 5.17236 38.5363C5.18268 40.3738 5.75455 41.7284 6.31143 42.7391C7.29955 44.3872 11.0842 46.1019 14.7227 46.5491C16.9539 46.8013 19.9436 47.0609 24.0002 47.0647C28.0577 47.06 31.0464 46.8003 33.2777 46.5491C36.9171 46.1019 40.7008 44.3872 41.6889 42.7391C42.2449 41.7284 42.8177 40.3747 42.828 38.5363C42.8177 36.6988 42.2449 35.3441 41.6889 34.3334Z" fill="url(#paint0_radial_1277_12947)"/>
<path d="M39.2636 14.4788C38.6636 11.7703 36.0386 9.2897 33.3226 8.76283C31.668 8.43189 27.0526 8.02314 24.0001 8.05689C20.9476 8.02314 16.3323 8.43189 14.6776 8.76283C11.9617 9.2897 9.3367 11.7703 8.7367 14.4788C8.39545 16.1231 8.05982 18.36 8.0542 21.4135C8.05982 24.4669 8.39451 26.7038 8.7367 28.3481C9.3367 31.0566 11.9617 33.5372 14.6776 34.0641C15.5711 34.2431 17.3279 34.4438 19.2348 34.5863C19.4514 34.9256 19.6848 35.2866 19.9379 35.67C20.9504 37.2028 21.7248 38.2716 22.3117 39.016C23.2886 40.2544 24.7098 40.2544 25.6867 39.016C26.2736 38.2716 27.048 37.2038 28.0604 35.67C28.3136 35.2866 28.548 34.9256 28.7636 34.5863C30.6714 34.4438 32.4283 34.2431 33.3217 34.0641C36.0376 33.5372 38.6626 31.0566 39.2626 28.3481C39.6039 26.7038 39.9395 24.4669 39.9451 21.4135C39.9395 18.36 39.6048 16.1231 39.2626 14.4788H39.2636Z" fill="url(#paint1_linear_1277_12947)"/>
<path d="M31.6282 16.3717C31.1332 15.876 30.3293 15.8763 29.8336 16.3717L21.7566 24.449L18.1667 20.8591C17.671 20.3634 16.8675 20.3634 16.3718 20.8591C15.8761 21.3548 15.8761 22.1584 16.3718 22.6541L20.8589 27.1412C21.1066 27.3889 21.4314 27.5131 21.7562 27.5131C22.0811 27.5131 22.4062 27.3892 22.6539 27.1412L31.6282 18.1666C32.1239 17.6712 32.1239 16.8673 31.6282 16.3717Z" fill="white"/>
</g>
<defs>
<radialGradient id="paint0_radial_1277_12947" cx="0" cy="0" r="1" gradientUnits="userSpaceOnUse" gradientTransform="translate(24.0002 38.2324) scale(18.8278 8.47252)">
<stop stop-color="#6CB274" stop-opacity="0.6"/>
<stop offset="1" stop-color="#519559" stop-opacity="0"/>
</radialGradient>
<linearGradient id="paint1_linear_1277_12947" x1="35.8501" y1="33.2644" x2="12.1501" y2="9.56439" gradientUnits="userSpaceOnUse">
<stop stop-color="#9FE3A7"/>
<stop offset="0.54" stop-color="#55A25E"/>
<stop offset="1" stop-color="#9FE3A7"/>
</linearGradient>
<clipPath id="clip0_1277_12947">
<rect width="48" height="48" fill="white"/>
</clipPath>
</defs>
</svg>
