<svg width="12" height="12" viewBox="0 0 12 12" fill="none" xmlns="http://www.w3.org/2000/svg">
<g clip-path="url(#clip0_1277_13629)">
<path d="M11.6941 0.917828C11.6101 0.713393 11.4728 0.539625 11.2989 0.417644C11.1249 0.295663 10.9218 0.230721 10.7143 0.230713H1.28568C1.07814 0.230735 0.875077 0.295668 0.701157 0.417622C0.527238 0.539577 0.389951 0.713304 0.305977 0.917694C0.222004 1.12208 0.194959 1.34834 0.228129 1.56897C0.261298 1.7896 0.353254 1.99511 0.492823 2.16052L0.499252 2.1686L4.07139 6.27398V10.6153C4.07137 10.8242 4.124 11.0292 4.22367 11.2084C4.32335 11.3876 4.46633 11.5343 4.63736 11.6329C4.80839 11.7314 5.00106 11.7781 5.19481 11.768C5.38855 11.7579 5.57611 11.6913 5.73747 11.5753L7.45175 10.3448C7.59852 10.2393 7.71884 10.0964 7.80202 9.92886C7.88519 9.76129 7.92865 9.57419 7.92854 9.38417V6.27398L11.5001 2.1686L11.5066 2.16052C11.6462 1.99519 11.7383 1.78975 11.7716 1.56914C11.8049 1.34854 11.7779 1.12227 11.6941 0.917828ZM6.81907 5.52687C6.70659 5.65468 6.64357 5.82385 6.64282 5.99994V9.26071L5.35711 10.1838V5.99994C5.35695 5.82417 5.2947 5.65504 5.183 5.52687L1.78014 1.61533H10.2198L6.81907 5.52687Z" fill="#555F6D"/>
</g>
<defs>
<clipPath id="clip0_1277_13629">
<rect width="12" height="12" fill="white"/>
</clipPath>
</defs>
</svg>
