<svg width="12" height="12" viewBox="0 0 12 12" fill="none" xmlns="http://www.w3.org/2000/svg">
<path d="M11.2504 0.5H5.75038C5.55147 0.5 5.3607 0.579018 5.22005 0.71967C5.0794 0.860322 5.00038 1.05109 5.00038 1.25C5.00038 1.44891 5.0794 1.63968 5.22005 1.78033C5.3607 1.92098 5.55147 2 5.75038 2H11.2504C11.4493 2 11.6401 1.92098 11.7807 1.78033C11.9214 1.63968 12.0004 1.44891 12.0004 1.25C12.0004 1.05109 11.9214 0.860322 11.7807 0.71967C11.6401 0.579018 11.4493 0.5 11.2504 0.5ZM9.25038 3.5H5.75038C5.55147 3.5 5.3607 3.57902 5.22005 3.71967C5.0794 3.86032 5.00038 4.05109 5.00038 4.25C5.00038 4.44891 5.0794 4.63968 5.22005 4.78033C5.3607 4.92098 5.55147 5 5.75038 5H9.25038C9.44929 5 9.64006 4.92098 9.78071 4.78033C9.92136 4.63968 10.0004 4.44891 10.0004 4.25C10.0004 4.05109 9.92136 3.86032 9.78071 3.71967C9.64006 3.57902 9.44929 3.5 9.25038 3.5ZM7.25038 6.5H5.75038C5.55147 6.5 5.3607 6.57902 5.22005 6.71967C5.0794 6.86032 5.00038 7.05109 5.00038 7.25C5.00038 7.44891 5.0794 7.63968 5.22005 7.78033C5.3607 7.92098 5.55147 8 5.75038 8H7.25038C7.44929 8 7.64006 7.92098 7.78071 7.78033C7.92136 7.63968 8.00038 7.44891 8.00038 7.25C8.00038 7.05109 7.92136 6.86032 7.78071 6.71967C7.64006 6.57902 7.44929 6.5 7.25038 6.5ZM4.58638 9.207H3.50038V0.75C3.50038 0.651509 3.48098 0.553982 3.44329 0.462987C3.4056 0.371993 3.35036 0.289314 3.28071 0.21967C3.21107 0.150026 3.12839 0.0947814 3.03739 0.0570903C2.9464 0.0193993 2.84887 0 2.75038 0C2.65189 0 2.55436 0.0193993 2.46337 0.0570903C2.37237 0.0947814 2.2897 0.150026 2.22005 0.21967C2.15041 0.289314 2.09516 0.371993 2.05747 0.462987C2.01978 0.553982 2.00038 0.651509 2.00038 0.75V9.207H1.00038C0.901507 9.20702 0.804857 9.23636 0.722653 9.2913C0.640448 9.34624 0.576378 9.42432 0.538543 9.51567C0.500708 9.60702 0.490806 9.70754 0.51009 9.80452C0.529374 9.90149 0.576977 9.99057 0.646882 10.0605L2.43988 11.8535C2.53365 11.9472 2.6608 11.9999 2.79338 11.9999C2.92596 11.9999 3.05312 11.9472 3.14688 11.8535L4.93988 10.0605C5.00979 9.99057 5.05739 9.90149 5.07667 9.80452C5.09596 9.70754 5.08606 9.60702 5.04822 9.51567C5.01039 9.42432 4.94632 9.34624 4.86411 9.2913C4.78191 9.23636 4.68526 9.20702 4.58638 9.207Z" fill="#4A545E"/>
</svg>
