<svg width="32" height="32" viewBox="0 0 32 32" fill="none" xmlns="http://www.w3.org/2000/svg">
<rect width="32" height="32" rx="4" fill="#00A553" fill-opacity="0.12"/>
<path d="M25.5835 20.1667L21.4168 24.3334L18.5002 21.4167L19.7502 20.1667L21.4168 21.8334L24.3335 18.9167L25.5835 20.1667ZM16.9085 22.6667H11.0002V9.33341H16.8335V13.5001H21.0002V16.9084C21.2752 16.8667 21.5502 16.8334 21.8335 16.8334C22.1168 16.8334 22.3918 16.8667 22.6668 16.9084V12.6667L17.6668 7.66675H11.0002C10.5581 7.66675 10.1342 7.84234 9.82165 8.1549C9.50909 8.46746 9.3335 8.89139 9.3335 9.33341V22.6667C9.3335 23.5917 10.0752 24.3334 11.0002 24.3334H17.5085C17.2168 23.8251 17.0085 23.2667 16.9085 22.6667Z" fill="#1D7C4D"/>
</svg>
