<svg width="32" height="32" viewBox="0 0 32 32" fill="none" xmlns="http://www.w3.org/2000/svg">
<rect width="32" height="32" rx="4" fill="#EEA32C" fill-opacity="0.16"/>
<path d="M19.3335 17.6666H20.5835V20.0166L22.6168 21.1916L21.9918 22.2749L19.3335 20.7416V17.6666ZM20.1668 15.9999C19.0618 15.9999 18.002 16.4389 17.2205 17.2203C16.4391 18.0017 16.0002 19.0615 16.0002 20.1666C16.0002 21.2717 16.4391 22.3315 17.2205 23.1129C18.002 23.8943 19.0618 24.3332 20.1668 24.3332C21.2719 24.3332 22.3317 23.8943 23.1131 23.1129C23.8945 22.3315 24.3335 21.2717 24.3335 20.1666C24.3335 19.0615 23.8945 18.0017 23.1131 17.2203C22.3317 16.4389 21.2719 15.9999 20.1668 15.9999ZM20.1668 14.3333C21.7139 14.3333 23.1977 14.9478 24.2916 16.0418C25.3856 17.1358 26.0002 18.6195 26.0002 20.1666C26.0002 21.7137 25.3856 23.1974 24.2916 24.2914C23.1977 25.3853 21.7139 25.9999 20.1668 25.9999C17.8418 25.9999 15.8335 24.6332 14.8918 22.6666H6.8335V20.1666C6.8335 17.9499 11.2752 16.8333 13.5002 16.8333C14.0002 16.8333 14.6168 16.8916 15.2668 16.9999C15.7953 16.181 16.5208 15.5077 17.3768 15.0418C18.2329 14.576 19.1922 14.3323 20.1668 14.3333ZM14.3335 20.1666C14.3335 19.5833 14.4168 19.0166 14.5752 18.4999C14.2252 18.4416 13.8585 18.4166 13.5002 18.4166C11.0252 18.4166 8.41683 19.6333 8.41683 20.1666V21.0833H14.4085C14.3594 20.7801 14.3343 20.4736 14.3335 20.1666ZM13.5002 9.33325C14.3842 9.33325 15.2321 9.68444 15.8572 10.3096C16.4823 10.9347 16.8335 11.7825 16.8335 12.6666C16.8335 13.5506 16.4823 14.3985 15.8572 15.0236C15.2321 15.6487 14.3842 15.9999 13.5002 15.9999C12.6161 15.9999 11.7683 15.6487 11.1431 15.0236C10.518 14.3985 10.1668 13.5506 10.1668 12.6666C10.1668 11.7825 10.518 10.9347 11.1431 10.3096C11.7683 9.68444 12.6161 9.33325 13.5002 9.33325ZM13.5002 10.9166C13.036 10.9166 12.5909 11.101 12.2627 11.4291C11.9345 11.7573 11.7502 12.2025 11.7502 12.6666C11.7502 13.1307 11.9345 13.5758 12.2627 13.904C12.5909 14.2322 13.036 14.4166 13.5002 14.4166C13.9643 14.4166 14.4094 14.2322 14.7376 13.904C15.0658 13.5758 15.2502 13.1307 15.2502 12.6666C15.2502 12.2025 15.0658 11.7573 14.7376 11.4291C14.4094 11.101 13.9643 10.9166 13.5002 10.9166Z" fill="#DA700E"/>
</svg>
