<svg width="20" height="20" viewBox="0 0 20 20" fill="none" xmlns="http://www.w3.org/2000/svg">
<path d="M0.5 4C0.5 2.067 2.067 0.5 4 0.5H16C17.933 0.5 19.5 2.067 19.5 4V16C19.5 17.933 17.933 19.5 16 19.5H4C2.067 19.5 0.5 17.933 0.5 16V4Z" fill="#FCFCFC"/>
<path d="M0.5 4C0.5 2.067 2.067 0.5 4 0.5H16C17.933 0.5 19.5 2.067 19.5 4V16C19.5 17.933 17.933 19.5 16 19.5H4C2.067 19.5 0.5 17.933 0.5 16V4Z" stroke="#CFD6DD"/>
<g clip-path="url(#clip0_1277_14236)">
<path d="M7.52036 15.0532C7.12296 15.0533 6.74183 14.8954 6.46106 14.6141L3.25845 11.4127C2.91385 11.068 2.91385 10.5092 3.25845 10.1645C3.60317 9.81991 4.16194 9.81991 4.50666 10.1645L7.52036 13.1782L15.4933 5.20523C15.8381 4.86063 16.3968 4.86063 16.7415 5.20523C17.0862 5.54994 17.0862 6.10872 16.7415 6.45344L8.57966 14.6141C8.29889 14.8954 7.91776 15.0533 7.52036 15.0532Z" fill="#FCFCFC"/>
</g>
<defs>
<clipPath id="clip0_1277_14236">
<rect width="14" height="14" fill="white" transform="translate(3 3)"/>
</clipPath>
</defs>
</svg>
