<svg width="415" height="175" viewBox="0 0 415 175" fill="none" xmlns="http://www.w3.org/2000/svg">
<g opacity="0.3">
<mask id="mask0_1319_7845" style="mask-type:alpha" maskUnits="userSpaceOnUse" x="0" y="0" width="415" height="175">
<rect width="415" height="175" rx="6" fill="white"/>
</mask>
<g mask="url(#mask0_1319_7845)">
<rect width="34.7681" height="285.703" transform="matrix(0.713857 -0.700292 0.713857 0.700292 -35 74.3478)" fill="url(#paint0_linear_1319_7845)"/>
<rect width="34.7681" height="285.703" transform="matrix(0.713857 -0.700292 0.713857 0.700292 110 0.347778)" fill="url(#paint1_linear_1319_7845)"/>
<rect width="34.7681" height="285.703" transform="matrix(0.713857 -0.700292 0.713857 0.700292 0 0.347778)" fill="url(#paint2_linear_1319_7845)"/>
<rect width="34.7681" height="285.703" transform="matrix(0.713857 -0.700292 0.713857 0.700292 206 0.347778)" fill="url(#paint3_linear_1319_7845)"/>
<rect width="34.7681" height="285.703" transform="matrix(0.713857 -0.700292 0.713857 0.700292 300 -0.652222)" fill="url(#paint4_linear_1319_7845)"/>
</g>
</g>
<defs>
<linearGradient id="paint0_linear_1319_7845" x1="17.3841" y1="0" x2="15.8639" y2="141.03" gradientUnits="userSpaceOnUse">
<stop stop-color="#D9D9D9"/>
<stop offset="1" stop-color="white" stop-opacity="0"/>
</linearGradient>
<linearGradient id="paint1_linear_1319_7845" x1="17.3841" y1="0" x2="15.8639" y2="141.03" gradientUnits="userSpaceOnUse">
<stop stop-color="#D9D9D9"/>
<stop offset="1" stop-color="white" stop-opacity="0"/>
</linearGradient>
<linearGradient id="paint2_linear_1319_7845" x1="19.6168" y1="229.033" x2="13.2134" y2="12.7092" gradientUnits="userSpaceOnUse">
<stop stop-color="#D9D9D9"/>
<stop offset="1" stop-color="white" stop-opacity="0"/>
</linearGradient>
<linearGradient id="paint3_linear_1319_7845" x1="19.6168" y1="229.033" x2="13.2134" y2="12.7092" gradientUnits="userSpaceOnUse">
<stop stop-color="#D9D9D9"/>
<stop offset="1" stop-color="white" stop-opacity="0"/>
</linearGradient>
<linearGradient id="paint4_linear_1319_7845" x1="17.3841" y1="0" x2="15.9137" y2="98.9545" gradientUnits="userSpaceOnUse">
<stop stop-color="#D9D9D9"/>
<stop offset="1" stop-color="white" stop-opacity="0"/>
</linearGradient>
</defs>
</svg>
