<svg width="107" height="36" viewBox="0 0 107 36" fill="none" xmlns="http://www.w3.org/2000/svg">
<path d="M48.2725 15.3961H40.3499V8.5061H35.3278V27.2103H40.3499V19.7173H48.2725V27.2103H53.2846V8.5061H48.2725V15.3961Z" fill="#EE2326"/>
<path d="M60.5152 15.6637C60.9361 13.1387 62.3069 11.8198 64.5294 11.8198C66.7772 11.8198 68.3042 13.3748 68.3774 15.6637H60.5152ZM64.5572 8.01172C59.031 8.01172 55.3242 11.8967 55.3242 17.7243C55.3242 23.7854 58.9881 27.6371 64.7159 27.6371C69.292 27.6371 72.4294 25.4996 73.6062 21.4528H68.1859C67.6944 22.9309 66.5479 23.6725 64.8243 23.6725C62.2338 23.6725 60.6765 22.1098 60.5454 19.3923H73.6062C73.6062 18.7353 73.6439 18.5044 73.6439 18.1914C73.6439 11.8967 70.1362 8.01172 64.5572 8.01172Z" fill="#EE2326"/>
<path d="M82.1799 8.34107C80.4033 8.70032 75.8448 10.0963 75.8448 17.1786V27.2044H80.925V18.9236C80.925 15.8572 81.3433 14.4175 82.5982 13.4886C83.3667 12.8625 84.4781 12.5161 85.7682 12.5161C86.3025 12.5161 86.5318 12.5572 87.1441 12.67V8.42576C87.1441 8.42576 85.1181 7.75601 82.1799 8.34107Z" fill="#EE2326"/>
<path d="M97.1912 23.741C94.5149 23.741 92.9528 21.5291 92.9528 17.8365C92.9528 14.1054 94.4824 11.9294 97.1912 11.9294C99.8595 11.9294 101.389 14.0669 101.389 17.798C101.389 21.5701 99.8595 23.741 97.1912 23.741ZM97.1912 8.00586C91.4961 8.00832 87.832 11.8524 87.832 17.8365C87.832 23.7796 91.4961 27.6312 97.1912 27.6312C102.833 27.6312 106.502 23.7796 106.502 17.8365C106.502 11.8524 102.833 8.00586 97.1912 8.00586Z" fill="#EE2326"/>
<path d="M21.5741 6.2046L13.7195 0.294922V17.1284L21.5741 11.5831V6.2046Z" fill="white"/>
<path d="M21.5743 30.2757V18.7129L13.7197 24.4635L21.5743 30.2757Z" fill="white"/>
<path d="M0.00341797 29.6009L7.86049 35.4157V11.3433L0.00341797 5.43359V29.6009Z" fill="#EE2326"/>
</svg>
