<svg width="21" height="20" viewBox="0 0 21 20" fill="none" xmlns="http://www.w3.org/2000/svg">
<g id="basil:add-solid">
<path id="Vector" fill-rule="evenodd" clip-rule="evenodd" d="M6.12175 2.24943C9.13066 1.91686 12.1671 1.91686 15.176 2.24943C16.842 2.43584 18.186 3.74557 18.3815 5.41452C18.7381 8.46114 18.7381 11.5389 18.3815 14.5855C18.186 16.2544 16.842 17.5642 15.176 17.7506C12.1671 18.0831 9.13066 18.0831 6.12175 17.7506C4.4558 17.5642 3.11176 16.2544 2.91628 14.5855C2.55981 11.5392 2.55981 8.46179 2.91628 5.41549C3.01516 4.60467 3.38541 3.85095 3.96704 3.27648C4.54867 2.70201 5.30758 2.34045 6.12078 2.25041M10.6489 5.15238C10.8423 5.15238 11.0279 5.22909 11.1647 5.36565C11.3015 5.50221 11.3783 5.68742 11.3783 5.88054V9.27184H14.7754C14.9688 9.27184 15.1543 9.34855 15.2911 9.48511C15.4279 9.62167 15.5048 9.80688 15.5048 10C15.5048 10.1931 15.4279 10.3783 15.2911 10.5149C15.1543 10.6514 14.9688 10.7282 14.7754 10.7282H11.3783V14.1195C11.3783 14.3126 11.3015 14.4978 11.1647 14.6343C11.0279 14.7709 10.8423 14.8476 10.6489 14.8476C10.4554 14.8476 10.2699 14.7709 10.1331 14.6343C9.99635 14.4978 9.9195 14.3126 9.9195 14.1195V10.7282H6.52244C6.32899 10.7282 6.14346 10.6514 6.00667 10.5149C5.86988 10.3783 5.79304 10.1931 5.79304 10C5.79304 9.80688 5.86988 9.62167 6.00667 9.48511C6.14346 9.34855 6.32899 9.27184 6.52244 9.27184H9.9195V5.88054C9.9195 5.68742 9.99635 5.50221 10.1331 5.36565C10.2699 5.22909 10.4554 5.15238 10.6489 5.15238Z" fill="#272E35"/>
</g>
</svg>
