<svg width="20" height="20" viewBox="0 0 20 20" fill="none" xmlns="http://www.w3.org/2000/svg">
<path d="M2.24624 17.5265H3.66309L15.1602 6.23961L13.7433 4.84867L2.24624 16.1355V17.5265ZM0.561523 19.1804V15.4486L15.3764 0.910983C15.5461 0.759558 15.7336 0.64259 15.9388 0.560079C16.1441 0.477383 16.3594 0.436035 16.5846 0.436035C16.8098 0.436035 17.0279 0.47527 17.2388 0.553739C17.45 0.632208 17.6369 0.756985 17.7996 0.928073L19.1712 2.29145C19.3455 2.45114 19.4697 2.63491 19.5438 2.84275C19.6179 3.05059 19.655 3.25843 19.655 3.46628C19.655 3.68808 19.6164 3.89969 19.5393 4.1011C19.4622 4.3027 19.3395 4.48683 19.1712 4.65351L4.36281 19.1804H0.561523ZM14.4394 5.55627L13.7433 4.84867L15.1602 6.23961L14.4394 5.55627Z" fill="black"/>
</svg>
