<svg width="20" height="20" viewBox="0 0 20 20" fill="none" xmlns="http://www.w3.org/2000/svg">
<path d="M3.40039 3.5C3.40039 2.67157 4.07196 2 4.90039 2H8.90039C9.72882 2 10.4004 2.67157 10.4004 3.5V9.5C10.4004 10.3284 9.72882 11 8.90039 11H3.40039V3.5Z" stroke="#C53434" stroke-width="1.3"/>
<path d="M10.4004 4H15.3558C16.1879 4 16.656 4.95708 16.1451 5.61394L14.8554 7.27212C14.2937 7.99434 14.2937 9.00566 14.8554 9.72788L16.1451 11.3861C16.656 12.0429 16.1879 13 15.3558 13H11.4004C10.8481 13 10.4004 12.5523 10.4004 12V4Z" stroke="#C53434" stroke-width="1.3"/>
<path d="M3.33301 18.3333L3.33301 3.33325" stroke="#C53434" stroke-width="1.4" stroke-linecap="round" stroke-linejoin="round"/>
</svg>
