<svg width="46" height="40" viewBox="0 0 46 40" fill="none" xmlns="http://www.w3.org/2000/svg">
<path d="M17.4409 21.0945C9.73524 12.7223 21.1918 1.26846 29.5606 8.97414C29.6361 9.04959 29.7256 9.10945 29.8242 9.15028C29.9228 9.19112 30.0285 9.21213 30.1352 9.21213C30.2419 9.21212 30.3476 9.1911 30.4462 9.15026C30.5448 9.10942 30.6344 9.04955 30.7098 8.97409C30.7853 8.89862 30.8452 8.80904 30.886 8.71044C30.9268 8.61184 30.9478 8.50617 30.9478 8.39945C30.9478 8.29273 30.9268 8.18706 30.886 8.08847C30.8451 7.98988 30.7853 7.9003 30.7098 7.82484C28.7963 5.91584 26.2037 4.84375 23.5007 4.84375C20.7978 4.84375 18.2052 5.91584 16.2917 7.82484C9.87444 14.2145 14.5454 25.2854 23.5009 25.2248C24.8396 25.2272 26.1656 24.965 27.4027 24.4535C28.6398 23.9419 29.7637 23.191 30.7098 22.2438C30.8572 22.0904 30.9387 21.8852 30.9365 21.6725C30.9344 21.4597 30.849 21.2562 30.6985 21.1058C30.548 20.9553 30.3446 20.8699 30.1318 20.8678C29.919 20.8657 29.7139 20.9471 29.5605 21.0946C27.9521 22.6994 25.7728 23.6006 23.5007 23.6006C21.2286 23.6006 19.0493 22.6993 17.4409 21.0945Z" fill="black"/>
<path d="M45.4861 17.4885L37.7092 4.01885C37.5401 3.7259 37.2968 3.48263 37.0039 3.3135C36.711 3.14436 36.3787 3.05531 36.0404 3.05531C35.7022 3.05531 35.3699 3.14436 35.077 3.3135C34.784 3.48263 34.5408 3.7259 34.3717 4.01885L33.25 5.9617C33.141 5.84478 33.0346 5.72548 32.9216 5.61258C24.5906 -2.74659 10.158 3.23097 10.1782 15.033C10.1735 17.6064 10.9196 20.1253 12.3252 22.281L11.3931 23.2129C11.0063 22.745 10.4429 22.3699 9.90705 22.8761L6.63112 26.1509C5.50448 27.2141 4.17743 28.0424 2.72734 28.5875C-0.695547 29.6969 -0.257122 34.2166 2.13377 36.4021C4.31534 38.7937 8.84296 39.2292 9.9484 35.8083C10.4948 34.3601 11.322 33.0341 12.3826 31.9067L15.6601 28.6287C15.7356 28.5533 15.7955 28.4637 15.8363 28.3651C15.8772 28.2665 15.8982 28.1608 15.8982 28.0541C15.8982 27.9474 15.8772 27.8417 15.8363 27.7431C15.7955 27.6445 15.7356 27.5549 15.6601 27.4795L15.3234 27.1428L16.2563 26.2101C17.8746 27.2649 19.7035 27.954 21.6154 28.2294C23.5274 28.5048 25.4764 28.3598 27.3266 27.8046C29.1767 27.2494 30.8835 26.2973 32.328 25.0147C33.7724 23.7321 34.9197 22.1499 35.6898 20.3784H43.8174C44.1542 20.375 44.4844 20.2838 44.7753 20.1139C45.0662 19.944 45.3077 19.7013 45.4762 19.4095C45.6446 19.1178 45.7342 18.7872 45.7359 18.4504C45.7376 18.1135 45.6515 17.782 45.4861 17.4885ZM11.2278 30.763C9.9835 32.0728 9.02057 33.6235 8.39828 35.3195C8.2735 35.7267 8.01714 36.0809 7.66938 36.3267C7.32163 36.5724 6.90215 36.6958 6.47672 36.6775C4.26194 36.7964 1.76747 34.3184 1.85909 32.0725C1.83821 31.6452 1.9603 31.223 2.20606 30.8728C2.45183 30.5225 2.80727 30.2641 3.21625 30.1383C4.91208 29.5152 6.46266 28.5521 7.77281 27.308L10.4817 24.6C11.2483 25.3775 12.8389 26.9491 13.5992 27.7176L13.9362 28.0541L11.2278 30.763ZM14.1741 25.9936C13.7677 25.587 12.9487 24.7685 12.5425 24.3619L13.3052 23.5994C13.552 23.8922 13.8064 24.1801 14.0803 24.454C14.356 24.7297 14.6454 24.9829 14.9385 25.2294L14.1741 25.9936ZM31.7724 23.3047C30.1365 24.9407 28.0522 26.0548 25.7831 26.5061C23.514 26.9575 21.162 26.7258 19.0245 25.8405C16.8871 24.9551 15.0602 23.4558 13.7748 21.5322C12.4895 19.6085 11.8035 17.3469 11.8035 15.0334C11.8035 12.7198 12.4895 10.4582 13.7748 8.53458C15.0602 6.61094 16.8871 5.11164 19.0245 4.22629C21.162 3.34093 23.514 3.10929 25.7831 3.56065C28.0522 4.012 30.1365 5.12609 31.7724 6.76203C31.992 6.98179 32.1857 7.22224 32.3866 7.45737L26.5952 17.4885C26.4296 17.782 26.3433 18.1135 26.345 18.4504C26.3467 18.7874 26.4362 19.118 26.6047 19.4098C26.7732 19.7016 27.0148 19.9444 27.3058 20.1142C27.5968 20.2841 27.927 20.3751 28.2639 20.3783H33.9091C33.3538 21.4592 32.6328 22.4466 31.7724 23.3047ZM44.0781 18.6021C44.0525 18.6486 44.0147 18.6872 43.9687 18.7138C43.9228 18.7403 43.8705 18.7539 43.8174 18.7529H28.2639C28.2104 18.7547 28.1573 18.7419 28.1105 18.7159C28.0637 18.6899 28.0248 18.6517 27.998 18.6054C27.9712 18.559 27.9574 18.5062 27.9583 18.4527C27.9591 18.3991 27.9745 18.3468 28.0027 18.3013C29.253 16.1348 34.6435 6.80036 35.7797 4.8316C35.8049 4.78433 35.8425 4.74479 35.8884 4.71722C35.9343 4.68966 35.9869 4.67509 36.0404 4.67509C36.094 4.67509 36.1466 4.68966 36.1925 4.71722C36.2384 4.74479 36.276 4.78433 36.3012 4.8316L44.0785 18.3013C44.1058 18.3467 44.1202 18.3988 44.1202 18.4518C44.1201 18.5048 44.1056 18.5567 44.0781 18.6021Z" fill="black"/>
<path d="M36.0471 13.6956C36.1538 13.6956 36.2595 13.6746 36.3582 13.6338C36.4568 13.5929 36.5464 13.5331 36.6219 13.4576C36.6973 13.3821 36.7572 13.2925 36.798 13.1939C36.8389 13.0953 36.8599 12.9896 36.8598 12.8828V10.0295C36.8598 9.81398 36.7742 9.60726 36.6218 9.45484C36.4694 9.30242 36.2627 9.2168 36.0471 9.2168C35.8316 9.2168 35.6248 9.30242 35.4724 9.45484C35.32 9.60726 35.2344 9.81398 35.2344 10.0295V12.8828C35.2343 12.9896 35.2553 13.0953 35.2962 13.1939C35.337 13.2925 35.3969 13.3821 35.4724 13.4576C35.5478 13.5331 35.6374 13.5929 35.7361 13.6338C35.8347 13.6746 35.9404 13.6956 36.0471 13.6956Z" fill="#C53434"/>
<path d="M36.0407 15.0723C35.7932 15.0758 35.5571 15.1766 35.3834 15.3529C35.2097 15.5291 35.1123 15.7667 35.1123 16.0141C35.1123 16.2616 35.2097 16.4991 35.3834 16.6754C35.5572 16.8516 35.7933 16.9524 36.0407 16.956C36.2882 16.9524 36.5243 16.8516 36.698 16.6754C36.8717 16.4991 36.9691 16.2616 36.9691 16.0141C36.9691 15.7666 36.8717 15.5291 36.698 15.3529C36.5242 15.1766 36.2881 15.0758 36.0407 15.0723Z" fill="#C53434"/>
</svg>
