<svg width="20" height="20" viewBox="0 0 20 20" fill="none" xmlns="http://www.w3.org/2000/svg">
<g id="mage:dashboard-fill">
<path id="Vector" d="M9.16253 3.9V7.13333C9.16253 7.40106 9.10966 7.66615 9.00696 7.91339C8.90425 8.16063 8.75373 8.38515 8.56403 8.57407C8.37434 8.76299 8.1492 8.91259 7.90154 9.01429C7.65388 9.11598 7.38858 9.16776 7.12086 9.16667H3.90419C3.63719 9.16829 3.37262 9.11598 3.12632 9.01288C2.88003 8.90978 2.65709 8.75801 2.47086 8.56667C2.28179 8.37917 2.13206 8.15581 2.03046 7.90968C1.92886 7.66354 1.87743 7.3996 1.87919 7.13333V3.90833C1.87919 3.3705 2.09227 2.85457 2.47179 2.47349C2.85132 2.0924 3.36637 1.8772 3.90419 1.875H7.12919C7.39591 1.87526 7.65993 1.92842 7.90597 2.03141C8.152 2.1344 8.37516 2.28517 8.56253 2.475C8.7521 2.66082 8.90279 2.88252 9.0058 3.12717C9.10881 3.37183 9.16209 3.63454 9.16253 3.9ZM18.1209 3.90833V7.13333C18.1165 7.66983 17.9021 8.18326 17.5235 8.56341C17.1449 8.94356 16.6323 9.16014 16.0959 9.16667H12.8625C12.3235 9.16337 11.8068 8.95129 11.4209 8.575C11.2323 8.38541 11.083 8.16048 10.9814 7.9131C10.8799 7.66572 10.8282 7.40074 10.8292 7.13333V3.90833C10.8285 3.64147 10.8813 3.37718 10.9843 3.13102C11.0874 2.88485 11.2386 2.6618 11.4292 2.475C11.6166 2.28517 11.8397 2.1344 12.0858 2.03141C12.3318 1.92842 12.5958 1.87526 12.8625 1.875H16.0875C16.6255 1.87936 17.1401 2.09498 17.5205 2.47536C17.9009 2.85575 18.1165 3.37041 18.1209 3.90833ZM18.1209 12.8667V16.0917C18.1165 16.6282 17.9021 17.1416 17.5235 17.5217C17.1449 17.9019 16.6323 18.1185 16.0959 18.125H12.8625C12.3201 18.1305 11.7969 17.9242 11.4042 17.55C11.2149 17.361 11.0651 17.1361 10.9635 16.8886C10.8619 16.6411 10.8106 16.3759 10.8125 16.1083V12.8833C10.8119 12.6165 10.8646 12.3522 10.9676 12.106C11.0707 11.8599 11.2219 11.6368 11.4125 11.45C11.5999 11.2602 11.8231 11.1094 12.0691 11.0064C12.3151 10.9034 12.5791 10.8503 12.8459 10.85H16.0709C16.6088 10.8544 17.1234 11.07 17.5038 11.4504C17.8842 11.8307 18.0998 12.3454 18.1042 12.8833L18.1209 12.8667ZM9.16253 12.875V16.1C9.15597 16.6379 8.93824 17.1517 8.5563 17.5305C8.17435 17.9093 7.65881 18.1229 7.12086 18.125H3.90419C3.63796 18.1261 3.37414 18.0745 3.12796 17.9731C2.88178 17.8717 2.6581 17.7226 2.46984 17.5344C2.28159 17.3461 2.13247 17.1224 2.03109 16.8762C1.92972 16.6301 1.87809 16.3662 1.87919 16.1V12.875C1.88134 12.3371 2.09485 11.8215 2.47368 11.4396C2.85251 11.0576 3.36628 10.8399 3.90419 10.8333H7.12919C7.66936 10.8389 8.18627 11.054 8.57086 11.4333C8.95094 11.8168 9.16367 12.3351 9.16253 12.875Z" fill="#272E35"/>
</g>
</svg>
