<svg width="16" height="18" viewBox="0 0 16 18" fill="none" xmlns="http://www.w3.org/2000/svg">
<path id="Vector" fill-rule="evenodd" clip-rule="evenodd" d="M12.8333 2.33317H2.5C2.27899 2.33317 2.06702 2.42097 1.91074 2.57725C1.75446 2.73353 1.66667 2.94549 1.66667 3.1665V14.8332C1.66667 15.0542 1.75446 15.2661 1.91074 15.4224C2.06702 15.5787 2.27899 15.6665 2.5 15.6665H12.8333C13.0543 15.6665 13.2663 15.5787 13.4226 15.4224C13.5789 15.2661 13.6667 15.0542 13.6667 14.8332V3.1665C13.6667 2.94549 13.5789 2.73353 13.4226 2.57725C13.2663 2.42097 13.0543 2.33317 12.8333 2.33317ZM2.5 0.666504C1.83696 0.666504 1.20107 0.929896 0.732233 1.39874C0.263392 1.86758 0 2.50346 0 3.1665V14.8332C0 15.4962 0.263392 16.1321 0.732233 16.6009C1.20107 17.0698 1.83696 17.3332 2.5 17.3332H12.8333C13.4964 17.3332 14.1323 17.0698 14.6011 16.6009C15.0699 16.1321 15.3333 15.4962 15.3333 14.8332V3.1665C15.3333 2.50346 15.0699 1.86758 14.6011 1.39874C14.1323 0.929896 13.4964 0.666504 12.8333 0.666504H2.5ZM5.33333 4.83317C5.11232 4.83317 4.90036 4.92097 4.74408 5.07725C4.5878 5.23353 4.5 5.44549 4.5 5.6665C4.5 5.88752 4.5878 6.09948 4.74408 6.25576C4.90036 6.41204 5.11232 6.49984 5.33333 6.49984H10.3333C10.5543 6.49984 10.7663 6.41204 10.9226 6.25576C11.0789 6.09948 11.1667 5.88752 11.1667 5.6665C11.1667 5.44549 11.0789 5.23353 10.9226 5.07725C10.7663 4.92097 10.5543 4.83317 10.3333 4.83317H5.33333ZM4.5 8.99984C4.5 8.77882 4.5878 8.56686 4.74408 8.41058C4.90036 8.2543 5.11232 8.1665 5.33333 8.1665H10.3333C10.5543 8.1665 10.7663 8.2543 10.9226 8.41058C11.0789 8.56686 11.1667 8.77882 11.1667 8.99984C11.1667 9.22085 11.0789 9.43281 10.9226 9.58909C10.7663 9.74537 10.5543 9.83317 10.3333 9.83317H5.33333C5.11232 9.83317 4.90036 9.74537 4.74408 9.58909C4.5878 9.43281 4.5 9.22085 4.5 8.99984ZM4.5 12.3332C4.5 12.1122 4.5878 11.9002 4.74408 11.7439C4.90036 11.5876 5.11232 11.4998 5.33333 11.4998H10.3333C10.5543 11.4998 10.7663 11.5876 10.9226 11.7439C11.0789 11.9002 11.1667 12.1122 11.1667 12.3332C11.1667 12.5542 11.0789 12.7661 10.9226 12.9224C10.7663 13.0787 10.5543 13.1665 10.3333 13.1665H5.33333C5.11232 13.1665 4.90036 13.0787 4.74408 12.9224C4.5878 12.7661 4.5 12.5542 4.5 12.3332Z" fill="#BD001C"/>
</svg>
