<svg width="17" height="18" viewBox="0 0 17 18" fill="none" xmlns="http://www.w3.org/2000/svg">
<g id="Group">
<path id="Vector" d="M4.70167 2.68408H3.01746C2.57078 2.68408 2.1424 2.86153 1.82655 3.17738C1.51069 3.49323 1.33325 3.92161 1.33325 4.36829V14.4736C1.33325 14.9202 1.51069 15.3486 1.82655 15.6645C2.1424 15.9803 2.57078 16.1578 3.01746 16.1578H7.81494M13.1227 8.57882V4.36829C13.1227 3.92161 12.9453 3.49323 12.6294 3.17738C12.3136 2.86153 11.8852 2.68408 11.4385 2.68408H9.75431" stroke="black" stroke-width="1.4" stroke-linecap="round" stroke-linejoin="round"/>
<path id="Vector_2" d="M4.70142 7.73684H8.06984M4.70142 11.1053H7.22773M13.5435 14.8947L15.6488 17M4.70142 2.68421C4.70142 2.23753 4.87886 1.80914 5.19471 1.49329C5.51056 1.17744 5.93895 1 6.38563 1H8.06984C8.51652 1 8.9449 1.17744 9.26075 1.49329C9.5766 1.80914 9.75405 2.23753 9.75405 2.68421C9.75405 3.13089 9.5766 3.55928 9.26075 3.87513C8.9449 4.19098 8.51652 4.36842 8.06984 4.36842H6.38563C5.93895 4.36842 5.51056 4.19098 5.19471 3.87513C4.87886 3.55928 4.70142 3.13089 4.70142 2.68421ZM9.75405 13.2105C9.75405 13.7689 9.97585 14.3044 10.3707 14.6992C10.7655 15.094 11.301 15.3158 11.8593 15.3158C12.4177 15.3158 12.9531 15.094 13.348 14.6992C13.7428 14.3044 13.9646 13.7689 13.9646 13.2105C13.9646 12.6522 13.7428 12.1167 13.348 11.7219C12.9531 11.3271 12.4177 11.1053 11.8593 11.1053C11.301 11.1053 10.7655 11.3271 10.3707 11.7219C9.97585 12.1167 9.75405 12.6522 9.75405 13.2105Z" stroke="black" stroke-width="1.4" stroke-linecap="round" stroke-linejoin="round"/>
</g>
</svg>
