<svg width="20" height="20" viewBox="0 0 20 20" fill="none" xmlns="http://www.w3.org/2000/svg">
<path d="M3.33317 10.0007C3.33317 9.54232 3.49637 9.14996 3.82275 8.82357C4.14914 8.49718 4.5415 8.33398 4.99984 8.33398C5.45817 8.33398 5.85053 8.49718 6.17692 8.82357C6.50331 9.14996 6.6665 9.54232 6.6665 10.0007C6.6665 10.459 6.50331 10.8513 6.17692 11.1777C5.85053 11.5041 5.45817 11.6673 4.99984 11.6673C4.5415 11.6673 4.14914 11.5041 3.82275 11.1777C3.49637 10.8513 3.33317 10.459 3.33317 10.0007ZM8.33317 10.0007C8.33317 9.54232 8.49637 9.14996 8.82275 8.82357C9.14914 8.49718 9.5415 8.33398 9.99984 8.33398C10.4582 8.33398 10.8505 8.49718 11.1769 8.82357C11.5033 9.14996 11.6665 9.54232 11.6665 10.0007C11.6665 10.459 11.5033 10.8513 11.1769 11.1777C10.8505 11.5041 10.4582 11.6673 9.99984 11.6673C9.5415 11.6673 9.14914 11.5041 8.82275 11.1777C8.49637 10.8513 8.33317 10.459 8.33317 10.0007ZM13.3332 10.0007C13.3332 9.54232 13.4964 9.14996 13.8228 8.82357C14.1491 8.49718 14.5415 8.33398 14.9998 8.33398C15.4582 8.33398 15.8505 8.49718 16.1769 8.82357C16.5033 9.14996 16.6665 9.54232 16.6665 10.0007C16.6665 10.459 16.5033 10.8513 16.1769 11.1777C15.8505 11.5041 15.4582 11.6673 14.9998 11.6673C14.5415 11.6673 14.1491 11.5041 13.8228 11.1777C13.4964 10.8513 13.3332 10.459 13.3332 10.0007Z" fill="white"/>
</svg>
