<svg width="24" height="36" viewBox="0 0 24 36" fill="none" xmlns="http://www.w3.org/2000/svg">
<path d="M11.5906 15.4286C13.4983 15.4286 15.0448 13.8821 15.0448 11.9744C15.0448 10.0667 13.4983 8.52026 11.5906 8.52026C9.68295 8.52026 8.13647 10.0667 8.13647 11.9744C8.13647 13.8821 9.68295 15.4286 11.5906 15.4286Z" fill="#EE2326"/>
<path d="M11.5905 16.2729C9.90183 16.2729 8.44341 16.9638 7.29202 17.9616C6.14064 19.113 5.37305 20.6482 5.37305 22.4137C5.37305 22.7207 5.37305 23.0277 5.44981 23.3348H17.7313C17.808 23.0277 17.808 22.7207 17.808 22.4137C17.808 20.6482 17.0404 19.0363 15.889 17.9616C14.7377 16.9638 13.2792 16.2729 11.5905 16.2729Z" fill="#EE2326"/>
<path d="M20.4179 0H2.76333C1.22815 0 0 1.22814 0 2.76333V33.2367C0 34.7719 1.22815 36 2.76333 36H20.4179C21.9531 36 23.1812 34.7719 23.1812 33.2367V2.76333C23.1812 1.22814 21.9531 0 20.4179 0ZM20.8785 27.7868H2.30277V2.76333C2.30277 2.45629 2.53305 2.30277 2.76333 2.30277H20.4179C20.7249 2.30277 20.8785 2.53305 20.8785 2.76333V27.7868Z" fill="white"/>
</svg>
