<svg width="22" height="20" viewBox="0 0 22 20" fill="none" xmlns="http://www.w3.org/2000/svg">
<path d="M15.9313 0.98877H2.67698C1.39547 0.98877 0.35849 2.03028 0.35849 3.31179V10.5616C0.35849 11.2046 0.616603 11.7842 1.03774 12.2054C1.45434 12.6265 2.03396 12.8846 2.67698 12.8846C2.83094 12.8846 2.94868 13.0205 2.92604 13.179L2.5366 15.6786C2.49585 15.9231 2.78566 16.068 2.95774 15.8959L5.96 12.9571C6.00981 12.9118 6.06868 12.8846 6.1366 12.8846H15.9313C17.2128 12.8846 18.2543 11.8476 18.2543 10.5616V3.31179C18.2543 2.03028 17.2128 0.98877 15.9313 0.98877ZM5.66566 6.73971L5.02264 7.36462C4.9683 7.41896 4.94113 7.50047 4.95472 7.57745L5.10868 8.46047C5.14038 8.65066 4.9366 8.80009 4.76453 8.70952L3.96755 8.29292C3.9341 8.27508 3.89677 8.26575 3.85887 8.26575C3.82096 8.26575 3.78364 8.27508 3.75019 8.29292L2.94868 8.70952C2.7766 8.80009 2.57283 8.65518 2.60906 8.46047L2.75849 7.57745C2.76478 7.53982 2.76189 7.50124 2.75006 7.46497C2.73824 7.4287 2.71783 7.39583 2.69057 7.36915L2.04755 6.73971C2.01587 6.70857 1.99348 6.66923 1.98287 6.62609C1.97226 6.58295 1.97386 6.53771 1.98749 6.49543C2.00111 6.45315 2.02622 6.41549 2.06002 6.38665C2.09382 6.35782 2.13497 6.33896 2.17887 6.33217L3.06641 6.20537C3.1434 6.19632 3.21132 6.14651 3.24755 6.07858L3.64604 5.26801C3.73208 5.09141 3.98566 5.09141 4.0717 5.26801L4.46566 6.07858C4.50189 6.14651 4.56981 6.19632 4.64679 6.20537L5.53434 6.33217C5.72906 6.36386 5.80604 6.59934 5.66566 6.73971ZM11.1132 6.73971L10.4702 7.36462C10.4158 7.41896 10.3887 7.50047 10.4023 7.57745L10.5562 8.46047C10.5879 8.65066 10.3887 8.80009 10.2121 8.70952L9.41509 8.29292C9.38165 8.27508 9.34432 8.26575 9.30642 8.26575C9.26851 8.26575 9.23118 8.27508 9.19774 8.29292L8.40075 8.70952C8.22415 8.80009 8.02491 8.65518 8.0566 8.46047L8.20604 7.57745C8.21233 7.53982 8.20944 7.50124 8.19761 7.46497C8.18579 7.4287 8.16537 7.39583 8.13811 7.36915L7.49509 6.73971C7.46342 6.70857 7.44102 6.66923 7.43042 6.62609C7.41981 6.58295 7.42141 6.53771 7.43503 6.49543C7.44866 6.45315 7.47377 6.41549 7.50757 6.38665C7.54137 6.35782 7.58251 6.33896 7.62641 6.33217L8.51396 6.20537C8.59094 6.19632 8.65887 6.14651 8.69509 6.07858L9.09359 5.26801C9.17962 5.09141 9.43321 5.09141 9.51925 5.26801L9.91321 6.07858C9.94943 6.14651 10.0174 6.19632 10.0943 6.20537L10.9819 6.33217C11.1766 6.36386 11.2536 6.59934 11.1132 6.73971ZM16.5608 6.73971L15.9177 7.36462C15.8634 7.41896 15.8408 7.50047 15.8543 7.57745L16.0038 8.46047C16.04 8.65066 15.8362 8.80009 15.6596 8.70952L14.8672 8.29292C14.8329 8.27506 14.7949 8.26574 14.7562 8.26574C14.7176 8.26574 14.6795 8.27506 14.6453 8.29292L13.8483 8.70952C13.6762 8.80009 13.4725 8.65518 13.5042 8.46047L13.6536 7.57745C13.6599 7.53982 13.657 7.50124 13.6452 7.46497C13.6333 7.4287 13.6129 7.39583 13.5857 7.36915L12.9426 6.73971C12.911 6.70857 12.8886 6.66923 12.878 6.62609C12.8674 6.58295 12.869 6.53771 12.8826 6.49543C12.8962 6.45315 12.9213 6.41549 12.9551 6.38665C12.9889 6.35782 13.0301 6.33896 13.074 6.33217L13.966 6.20537C14.043 6.19632 14.1064 6.14651 14.1426 6.07858L14.5411 5.26801C14.6317 5.09141 14.8808 5.09141 14.9668 5.26801L15.3653 6.07858C15.3817 6.11283 15.4065 6.1424 15.4374 6.16456C15.4682 6.18672 15.5042 6.20075 15.5419 6.20537L16.4294 6.33217C16.6242 6.36386 16.7011 6.59934 16.5608 6.73971Z" fill="#1B242C"/>
<path d="M21.6415 6.35036V13.6047C21.6415 14.2477 21.3789 14.8273 20.9623 15.2485C20.5411 15.6651 19.957 15.9232 19.3185 15.9232C19.1645 15.9232 19.0468 16.0636 19.074 16.2175L19.4589 18.7172C19.4996 18.9617 19.2098 19.1066 19.0377 18.939L16.0355 15.9956C15.9869 15.9516 15.9244 15.926 15.8589 15.9232H6.06415C5.54792 15.9232 5.07245 15.7556 4.68755 15.4704L6.40377 13.7904H15.9313C17.7109 13.7904 19.16 12.3413 19.16 10.5617V4.02734H19.3185C20.6 4.02734 21.6415 5.06433 21.6415 6.35036Z" fill="#1B242C"/>
</svg>
