<svg width="36" height="36" viewBox="0 0 36 36" fill="none" xmlns="http://www.w3.org/2000/svg">
<path fill-rule="evenodd" clip-rule="evenodd" d="M18.8895 34.887L18.873 34.89L18.7665 34.9425L18.7365 34.9485L18.7155 34.9425L18.609 34.89C18.593 34.885 18.581 34.8875 18.573 34.8975L18.567 34.9125L18.5415 35.5545L18.549 35.5845L18.564 35.604L18.72 35.715L18.7425 35.721L18.7605 35.715L18.9165 35.604L18.9345 35.58L18.9405 35.5545L18.915 34.914C18.911 34.898 18.9025 34.889 18.8895 34.887ZM19.287 34.7175L19.2675 34.7205L18.99 34.86L18.975 34.875L18.9705 34.8915L18.9975 35.5365L19.005 35.5545L19.017 35.565L19.3185 35.7045C19.3375 35.7095 19.352 35.7055 19.362 35.6925L19.368 35.6715L19.317 34.7505C19.312 34.7325 19.302 34.7215 19.287 34.7175ZM18.2145 34.7205C18.2079 34.7165 18.2 34.7152 18.1925 34.7169C18.1849 34.7186 18.1783 34.7231 18.174 34.7295L18.165 34.7505L18.114 35.6715C18.115 35.6895 18.1235 35.7015 18.1395 35.7075L18.162 35.7045L18.4635 35.565L18.4785 35.553L18.4845 35.5365L18.51 34.8915L18.5055 34.8735L18.4905 34.8585L18.2145 34.7205Z" fill="white"/>
<path fill-rule="evenodd" clip-rule="evenodd" d="M15.7499 3C13.7168 3.00017 11.7132 3.48655 9.90628 4.41854C8.09937 5.35054 6.54153 6.70113 5.36275 8.35763C4.18396 10.0141 3.41841 11.9285 3.12995 13.9411C2.8415 15.9536 3.03852 18.006 3.70456 19.9269C4.3706 21.8478 5.48636 23.5816 6.95875 24.9836C8.43113 26.3856 10.2174 27.4152 12.1687 27.9864C14.1199 28.5576 16.1794 28.654 18.1754 28.2674C20.1714 27.8808 22.0461 27.0224 23.6429 25.764L29.1209 31.242C29.4038 31.5152 29.7827 31.6664 30.176 31.663C30.5693 31.6596 30.9455 31.5018 31.2236 31.2237C31.5017 30.9456 31.6595 30.5694 31.6629 30.1761C31.6663 29.7828 31.5151 29.4039 31.2419 29.121L25.7639 23.643C27.2459 21.7629 28.1686 19.5036 28.4265 17.1236C28.6844 14.7436 28.2671 12.339 27.2222 10.1851C26.1774 8.03125 24.5472 6.21503 22.5183 4.94435C20.4895 3.67366 18.1438 2.99984 15.7499 3ZM5.99989 15.75C5.99989 13.1641 7.02712 10.6842 8.8556 8.85571C10.6841 7.02723 13.164 6 15.7499 6C18.3358 6 20.8157 7.02723 22.6442 8.85571C24.4727 10.6842 25.4999 13.1641 25.4999 15.75C25.4999 18.3359 24.4727 20.8158 22.6442 22.6443C20.8157 24.4728 18.3358 25.5 15.7499 25.5C13.164 25.5 10.6841 24.4728 8.8556 22.6443C7.02712 20.8158 5.99989 18.3359 5.99989 15.75Z" fill="white"/>
<path d="M16.8973 8.51806L22.8612 18.8475C22.9521 19.005 23 19.1837 23 19.3655C23 19.5474 22.9521 19.7261 22.8612 19.8836C22.7703 20.0411 22.6395 20.1719 22.482 20.2628C22.3245 20.3538 22.1458 20.4017 21.9639 20.4017H10.0361C9.85422 20.4017 9.67555 20.3538 9.51804 20.2628C9.36054 20.1719 9.22974 20.0411 9.13881 19.8836C9.04787 19.7261 9 19.5474 9 19.3655C9 19.1837 9.04788 19.005 9.13881 18.8475L15.1027 8.51806C15.5013 7.82731 16.498 7.82731 16.8973 8.51806ZM16 16.7048C15.8168 16.7048 15.6411 16.7776 15.5116 16.9071C15.382 17.0366 15.3093 17.2123 15.3093 17.3955C15.3093 17.5787 15.382 17.7544 15.5116 17.884C15.6411 18.0135 15.8168 18.0863 16 18.0863C16.1832 18.0863 16.3589 18.0135 16.4884 17.884C16.618 17.7544 16.6907 17.5787 16.6907 17.3955C16.6907 17.2123 16.618 17.0366 16.4884 16.9071C16.3589 16.7776 16.1832 16.7048 16 16.7048ZM16 11.8696C15.8308 11.8696 15.6675 11.9317 15.5411 12.0441C15.4147 12.1565 15.3339 12.3115 15.3141 12.4795L15.3093 12.5603V15.3233C15.3094 15.4994 15.3769 15.6687 15.4977 15.7967C15.6186 15.9247 15.7838 16.0018 15.9595 16.0121C16.1353 16.0224 16.3083 15.9652 16.4433 15.8522C16.5784 15.7392 16.6651 15.5789 16.6859 15.4041L16.6907 15.3233V12.5603C16.6907 12.3771 16.618 12.2014 16.4884 12.0719C16.3589 11.9423 16.1832 11.8696 16 11.8696Z" fill="#EE2326"/>
</svg>
