<svg width="24" height="24" viewBox="0 0 24 24" fill="none" xmlns="http://www.w3.org/2000/svg">
<path d="M24.0004 16.2421C24.0004 13.2638 22.2918 10.6059 19.7329 9.31299C19.6534 15.0233 15.0238 19.653 9.31348 19.7324C10.6064 22.2913 13.2643 23.9999 16.2425 23.9999C17.6389 23.9999 18.9968 23.628 20.1899 22.9214L23.9665 23.966L22.9219 20.1894C23.6284 18.9963 24.0004 17.6384 24.0004 16.2421Z" fill="#1B242C"/>
<path d="M18.3281 9.16406C18.3281 4.11094 14.2172 0 9.16406 0C4.11094 0 0 4.11094 0 9.16406C0 10.8109 0.438375 12.4144 1.27078 13.8221L0.0336563 18.2942L4.506 17.0574C5.91375 17.8897 7.5172 18.3281 9.16406 18.3281C14.2172 18.3281 18.3281 14.2172 18.3281 9.16406ZM7.75781 7.03125H6.35156C6.35156 5.48034 7.61316 4.21875 9.16406 4.21875C10.715 4.21875 11.9766 5.48034 11.9766 7.03125C11.9766 7.81842 11.6433 8.57503 11.0619 9.10673L9.86719 10.2002V11.2969H8.46094V9.58102L10.1125 8.0693C10.4077 7.7992 10.5703 7.43062 10.5703 7.03125C10.5703 6.2558 9.93952 5.625 9.16406 5.625C8.38861 5.625 7.75781 6.2558 7.75781 7.03125ZM8.46094 12.7031H9.86719V14.1094H8.46094V12.7031Z" fill="#1B242C"/>
</svg>
