<svg width="24" height="20" viewBox="0 0 24 20" fill="none" xmlns="http://www.w3.org/2000/svg">
<path d="M23.614 10.8736C23.6511 11.7597 23.3352 12.6243 22.7356 13.2778C22.136 13.9312 21.3017 14.3202 20.4157 14.3593C20.3639 14.3617 20.3122 14.3629 20.2605 14.3629C20.0251 14.3627 19.7904 14.3372 19.5605 14.2869C18.8781 15.3404 17.9834 16.2399 16.9336 16.9278C15.8837 17.6157 14.7019 18.077 13.4636 18.282C13.3171 18.7123 13.0249 19.0779 12.6375 19.3156C12.2501 19.5533 11.7918 19.6482 11.3418 19.5838C10.8919 19.5194 10.4786 19.2999 10.1733 18.9631C9.86806 18.6263 9.69007 18.1935 9.67011 17.7394C9.65015 17.2853 9.78946 16.8385 10.064 16.4763C10.3385 16.114 10.731 15.859 11.1735 15.7554C11.6161 15.6518 12.0809 15.7061 12.4877 15.9089C12.8945 16.1117 13.2177 16.4502 13.4013 16.866C15.1447 16.5436 16.7196 15.6196 17.8517 14.2551C18.9837 12.8907 19.601 11.1722 19.5961 9.39932C19.5961 5.2108 16.1885 1.80322 12 1.80322C7.81148 1.80322 4.4039 5.2108 4.4039 9.39932C4.40367 10.6945 4.73468 11.9682 5.36545 13.0993C5.38683 13.1367 5.40287 13.1768 5.41312 13.2186C5.47405 13.3879 5.46753 13.5742 5.39493 13.7389C5.32233 13.9036 5.18919 14.034 5.02307 14.1033C4.61632 14.2745 4.17945 14.3626 3.73814 14.3625C3.6862 14.3625 3.63415 14.3613 3.58199 14.3589C2.69638 14.3193 1.8626 13.9302 1.26348 13.2768C0.664369 12.6233 0.348814 11.759 0.38601 10.8733C0.400963 10.5201 0.392619 10.205 0.384463 9.90022C0.376869 9.6133 0.368948 9.31658 0.381979 9.00697C0.42087 8.14215 0.792882 7.32593 1.4201 6.72925C2.04731 6.13257 2.88108 5.80173 3.74676 5.80602C5.13689 2.62546 8.31281 0.396973 12 0.396973C15.6872 0.396973 18.8632 2.62546 20.2533 5.80607C21.119 5.80113 21.9531 6.13168 22.5804 6.72838C23.2077 7.32507 23.5796 8.14153 23.618 9.00646C23.631 9.31653 23.6232 9.61321 23.6155 9.90013C23.6074 10.2049 23.599 10.5202 23.614 10.8736ZM17.8971 9.39932C17.8968 10.3028 17.6889 11.1941 17.2896 12.0045C16.8903 12.8149 16.3102 13.5228 15.5941 14.0735C14.8779 14.6243 14.0448 15.0032 13.1591 15.181C12.2733 15.3589 11.3585 15.3309 10.4853 15.0993L8.09835 16.4778C7.97792 16.5473 7.83956 16.5796 7.70078 16.5705C7.562 16.5614 7.42904 16.5114 7.3187 16.4267C7.20836 16.3421 7.12561 16.2266 7.08091 16.0949C7.03621 15.9632 7.03157 15.8212 7.06757 15.6868L7.6776 13.4112C6.66736 12.3192 6.10525 10.8869 6.10312 9.39932C6.10312 6.14675 8.74832 3.50085 12 3.50085C15.2517 3.50085 17.8971 6.14675 17.8971 9.39932ZM10.3605 9.39932C10.3605 9.21284 10.2865 9.03399 10.1546 8.90213C10.0227 8.77027 9.8439 8.69619 9.65742 8.69619H9.65624C9.51724 8.69645 9.38142 8.73791 9.26597 8.81533C9.15051 8.89275 9.0606 9.00265 9.00758 9.13115C8.95456 9.25965 8.94082 9.40099 8.9681 9.53729C8.99538 9.6736 9.06245 9.79876 9.16084 9.89696C9.25922 9.99517 9.38451 10.062 9.52087 10.089C9.65722 10.116 9.79853 10.102 9.92693 10.0488C10.0553 9.99554 10.1651 9.90541 10.2423 9.78981C10.3195 9.67422 10.3607 9.53833 10.3607 9.39932H10.3605ZM12.7033 9.39932C12.7032 9.3763 12.702 9.3533 12.6995 9.33041C12.6973 9.30743 12.6939 9.28459 12.6892 9.26197C12.685 9.23944 12.6794 9.21721 12.6723 9.19541C12.6658 9.17338 12.6578 9.15182 12.6494 9.13025C12.641 9.10869 12.6307 9.08854 12.6199 9.06838C12.6092 9.04811 12.5974 9.02839 12.5847 9.00932C12.5719 8.99004 12.5581 8.97142 12.5434 8.95354C12.529 8.93562 12.5135 8.91856 12.4971 8.90244C12.4811 8.88603 12.4638 8.87057 12.446 8.85557C12.4281 8.8415 12.4094 8.82744 12.3901 8.81479C12.3711 8.80207 12.3514 8.79034 12.3311 8.77963C12.3109 8.76885 12.2899 8.759 12.2687 8.7501C12.2476 8.74126 12.226 8.73359 12.2041 8.72713C12.1602 8.71305 12.115 8.70393 12.0691 8.69994C12.0002 8.69331 11.9308 8.69662 11.8628 8.70979C11.8402 8.7144 11.8179 8.72019 11.7959 8.72713C11.7739 8.73358 11.7523 8.74124 11.7312 8.7501C11.7101 8.759 11.689 8.76885 11.6688 8.77963C11.6487 8.79041 11.629 8.80213 11.6097 8.81479C11.5712 8.84032 11.5354 8.86969 11.5029 8.90244C11.4864 8.91857 11.4709 8.93563 11.4564 8.95354C11.4419 8.97143 11.4283 8.99004 11.4157 9.00932C11.4028 9.02838 11.3909 9.04809 11.3801 9.06838C11.3693 9.08846 11.3595 9.10912 11.351 9.13025C11.3421 9.15157 11.3342 9.17331 11.3275 9.19541C11.321 9.21697 11.3154 9.23947 11.3107 9.26197C11.3061 9.28459 11.3026 9.30743 11.3003 9.33041C11.298 9.35338 11.2971 9.37635 11.2971 9.39932C11.2971 9.42229 11.298 9.44572 11.3003 9.46869C11.3026 9.49151 11.3061 9.51419 11.3107 9.53666C11.3154 9.55916 11.321 9.58166 11.3275 9.60369C11.3342 9.62564 11.3421 9.64722 11.351 9.66838C11.3595 9.68967 11.3693 9.71048 11.3801 9.73072C11.3908 9.75088 11.403 9.77057 11.4157 9.78979C11.4283 9.80891 11.4419 9.82737 11.4564 9.8451C11.471 9.86306 11.4865 9.88027 11.5029 9.89666C11.5193 9.9126 11.5362 9.92853 11.5544 9.94307C11.5721 9.9577 11.5905 9.97132 11.6097 9.98385C11.629 9.9965 11.6486 10.0087 11.6688 10.0195C11.7095 10.0407 11.752 10.0583 11.7959 10.072C11.8178 10.0785 11.8403 10.0842 11.8628 10.0888C11.908 10.0981 11.9541 10.1026 12.0002 10.1024C12.1864 10.1019 12.365 10.028 12.4971 9.89666C12.5295 9.86377 12.5588 9.828 12.5847 9.78979C12.5974 9.77057 12.6091 9.75088 12.6199 9.73072C12.6307 9.71057 12.6405 9.68947 12.6494 9.66838C12.6583 9.64728 12.6658 9.62525 12.6723 9.60369C12.6793 9.58172 12.685 9.55933 12.6892 9.53666C12.6938 9.5142 12.6973 9.49151 12.6995 9.46869C12.7019 9.44561 12.7031 9.42243 12.7031 9.39922L12.7033 9.39932ZM15.047 9.39932C15.047 9.21284 14.9729 9.03399 14.8411 8.90213C14.7092 8.77027 14.5304 8.69619 14.3439 8.69619H14.3425C14.2035 8.69646 14.0677 8.73793 13.9523 8.81535C13.8368 8.89277 13.7469 9.00268 13.6939 9.13118C13.6409 9.25969 13.6272 9.40102 13.6544 9.53732C13.6817 9.67362 13.7488 9.79878 13.8472 9.89698C13.9456 9.99518 14.0709 10.062 14.2072 10.089C14.3436 10.116 14.4849 10.102 14.6133 10.0488C14.7417 9.99553 14.8514 9.90541 14.9286 9.78981C15.0058 9.67421 15.047 9.53832 15.047 9.39932Z" fill="white"/>
</svg>
