<svg width="36" height="36" viewBox="0 0 36 36" fill="none" xmlns="http://www.w3.org/2000/svg">
<path d="M7.52727 10.7358L11.7088 13.15L22.1813 7.1037L17.9998 4.68945L7.52727 10.7358ZM24.2907 8.32152L13.8182 14.3678L17.9998 16.7821L28.4722 10.7358L24.2907 8.32152ZM16.9451 30.7014V18.6088L12.7635 16.1946V28.2872L16.9451 30.7014ZM19.0544 18.6088V30.7014L29.5269 24.6551V12.5626L19.0544 18.6088ZM10.6541 14.9767L6.47266 12.5626V24.6551L10.6541 27.0693V14.9767Z" fill="#EE2326"/>
<path d="M6.52669 8.01823L2.10938 3.60091V6.32812H0V0H6.32812V2.10938H3.60091L8.01823 6.52669L6.52669 8.01823Z" fill="white"/>
<path d="M29.4733 27.9818L33.8906 32.3991V29.6719H36V36H29.6719V33.8906H32.3991L27.9818 29.4733L29.4733 27.9818Z" fill="white"/>
<path d="M29.6719 2.10938V0H36V6.32812H33.8906V3.60091L29.4733 8.01823L27.9818 6.52669L32.3991 2.10938H29.6719Z" fill="white"/>
<path d="M2.10938 32.3991L6.52669 27.9818L8.01823 29.4733L3.60091 33.8906H6.32812V36H0V29.6719H2.10938V32.3991Z" fill="white"/>
</svg>
