<svg width="36" height="29" viewBox="0 0 36 29" fill="none" xmlns="http://www.w3.org/2000/svg">
<g clip-path="url(#clip0_51_1933)">
<path d="M13.05 12.6H16.2V15.75C16.2 15.8693 16.2474 15.9838 16.3318 16.0682C16.4162 16.1526 16.5307 16.2 16.65 16.2H19.35C19.4693 16.2 19.5838 16.1526 19.6682 16.0682C19.7526 15.9838 19.8 15.8693 19.8 15.75V12.6H22.95C23.0693 12.6 23.1838 12.5526 23.2682 12.4682C23.3526 12.3838 23.4 12.2693 23.4 12.15V9.45C23.4 9.33065 23.3526 9.21619 23.2682 9.1318C23.1838 9.04741 23.0693 9 22.95 9H19.8V5.85C19.8 5.73065 19.7526 5.61619 19.6682 5.5318C19.5838 5.44741 19.4693 5.4 19.35 5.4H16.65C16.5307 5.4 16.4162 5.44741 16.3318 5.5318C16.2474 5.61619 16.2 5.73065 16.2 5.85V9H13.05C12.9307 9 12.8162 9.04741 12.7318 9.1318C12.6474 9.21619 12.6 9.33065 12.6 9.45V12.15C12.6 12.2693 12.6474 12.3838 12.7318 12.4682C12.8162 12.5526 12.9307 12.6 13.05 12.6ZM32.4 2.7C32.3979 1.98455 32.1128 1.29901 31.6069 0.793107C31.101 0.287208 30.4154 0.00207764 29.7 0L6.3 0C5.58455 0.00207764 4.89901 0.287208 4.39311 0.793107C3.88721 1.29901 3.60208 1.98455 3.6 2.7V21.6H32.4V2.7ZM28.8 18H7.2V3.6H28.8V18ZM35.1 23.4H21.4616C21.42 24.5143 20.6342 25.2 19.62 25.2H16.2C15.1487 25.2 14.3438 24.2173 14.3567 23.4H0.9C0.661305 23.4 0.432387 23.4948 0.263604 23.6636C0.0948212 23.8324 0 24.0613 0 24.3L0 25.2C0.00281939 26.1539 0.383009 27.0679 1.05753 27.7425C1.73205 28.417 2.64609 28.7972 3.6 28.8H32.4C33.3539 28.7972 34.2679 28.417 34.9425 27.7425C35.617 27.0679 35.9972 26.1539 36 25.2V24.3C36 24.0613 35.9052 23.8324 35.7364 23.6636C35.5676 23.4948 35.3387 23.4 35.1 23.4Z" fill="white"/>
<path d="M16.2 12.6H13.05C12.9307 12.6 12.8162 12.5526 12.7318 12.4682C12.6474 12.3838 12.6 12.2693 12.6 12.15V9.45C12.6 9.33065 12.6474 9.21619 12.7318 9.1318C12.8162 9.04741 12.9307 9 13.05 9H16.2V5.85C16.2 5.73065 16.2474 5.61619 16.3318 5.5318C16.4162 5.44741 16.5307 5.4 16.65 5.4H19.35C19.4693 5.4 19.5838 5.44741 19.6682 5.5318C19.7526 5.61619 19.8 5.73065 19.8 5.85V9H22.95C23.0693 9 23.1838 9.04741 23.2682 9.1318C23.3526 9.21619 23.4 9.33065 23.4 9.45V12.15C23.4 12.2693 23.3526 12.3838 23.2682 12.4682C23.1838 12.5526 23.0693 12.6 22.95 12.6H19.8V15.75C19.8 15.8693 19.7526 15.9838 19.6682 16.0682C19.5838 16.1526 19.4693 16.2 19.35 16.2H16.65C16.5307 16.2 16.4162 16.1526 16.3318 16.0682C16.2474 15.9838 16.2 15.8693 16.2 15.75V12.6Z" fill="#EE2326"/>
</g>
<defs>
<clipPath id="clip0_51_1933">
<rect width="36" height="28.8" fill="white"/>
</clipPath>
</defs>
</svg>
