<svg width="36" height="36" viewBox="0 0 36 36" fill="none" xmlns="http://www.w3.org/2000/svg">
<path d="M18.7021 24.1491L16.9101 23.9093C16.6674 23.3823 16.6195 23.2387 16.4262 22.7133L17.4915 21.2774C17.7821 20.894 17.7342 20.3685 17.3941 20.0325L15.9407 18.5966C15.6021 18.2621 15.0687 18.2133 14.6806 18.5004L13.2272 19.5529C12.6938 19.3131 12.5485 19.2657 12.0166 19.0747L11.7738 17.3044C11.7259 16.8262 11.2899 16.4902 10.8044 16.4902H8.72176C8.23781 16.4902 7.84975 16.8248 7.75236 17.3044L7.50963 19.0747C6.97624 19.3145 6.8309 19.3619 6.29901 19.5529L4.84562 18.5004C4.45756 18.2133 3.92566 18.2606 3.58551 18.5966L2.13212 20.0325C1.7935 20.367 1.74406 20.894 2.03473 21.2774L3.10002 22.7133C2.85729 23.2402 2.80935 23.3838 2.61607 23.9093L0.824064 24.1491C0.340112 24.1965 0 24.6272 0 25.1068V27.1643C0 27.6425 0.33862 28.0258 0.824064 28.122L2.61607 28.3618C2.8588 28.8888 2.90674 29.0324 3.10002 29.5579L2.03473 30.9937C1.74406 31.3771 1.792 31.9026 2.13212 32.2386L3.58551 33.6745C3.92413 34.009 4.45752 34.0579 4.84562 33.7707L6.29901 32.7183C6.8324 32.9581 6.97774 33.0054 7.50963 33.1964L7.75236 34.9668C7.80031 35.4449 8.23631 35.7809 8.72176 35.7809H10.8044C11.2884 35.7809 11.6764 35.4464 11.7738 34.9668L12.0166 33.1964C12.55 32.9566 12.6953 32.9092 13.2272 32.7183L14.6806 33.7707C15.0686 34.0579 15.6005 34.0105 15.9407 33.6745L17.3941 32.2386C17.7327 31.9041 17.7821 31.3771 17.4915 30.9937L16.4262 29.5579C16.6689 29.0309 16.7168 28.8873 16.9101 28.3618L18.7021 28.122C19.1861 28.0747 19.5262 27.6439 19.5262 27.1643V25.1068C19.5741 24.5798 19.1876 24.1979 18.7021 24.1491ZM9.78717 29.7324C7.74945 29.7324 6.07432 28.0775 6.07432 26.0644C6.07432 24.0512 7.74945 22.3963 9.78717 22.3963C11.8249 22.3963 13.5 24.0512 13.5 26.0644C13.5 28.0775 11.8249 29.7324 9.78717 29.7324Z" fill="white"/>
<path d="M35.1719 7.87809L33.3799 7.63829C33.1371 7.11133 33.0892 6.96775 32.8959 6.44226L33.9612 5.00641C34.2519 4.62303 34.2039 4.09755 33.8638 3.7615L32.4104 2.32564C32.0718 1.99111 31.5384 1.94226 31.1503 2.22942L29.6969 3.28187C29.1635 3.04207 29.0182 2.9947 28.4863 2.80375L28.2436 1.03336C28.1956 0.555248 27.7596 0.219238 27.2742 0.219238H25.1915C24.7075 0.219238 24.3195 0.553774 24.2221 1.03336L23.9794 2.80375C23.446 3.04355 23.3006 3.09092 22.7687 3.28187L21.3153 2.22942C20.9273 1.94226 20.3954 1.98962 20.0552 2.32564L18.6018 3.7615C18.2632 4.09603 18.2138 4.62299 18.5045 5.00641L19.5697 6.44226C19.327 6.96922 19.2791 7.11281 19.0858 7.63829L17.2938 7.87809C16.8098 7.92545 16.4697 8.3562 16.4697 8.83579V10.8933C16.4697 11.3715 16.8083 11.7548 17.2938 11.8511L19.0858 12.0909C19.3285 12.6178 19.3765 12.7614 19.5697 13.2869L18.5045 14.7227C18.2138 15.1061 18.2617 15.6316 18.6018 15.9676L20.0552 17.4035C20.3939 17.738 20.9272 17.7869 21.3153 17.4997L22.7687 16.4473C23.3021 16.6871 23.4475 16.7344 23.9794 16.9254L24.2221 18.6958C24.27 19.1739 24.706 19.5099 25.1915 19.5099H27.2742C27.7581 19.5099 28.1462 19.1754 28.2436 18.6958L28.4863 16.9254C29.0197 16.6856 29.165 16.6382 29.6969 16.4473L31.1503 17.4997C31.5384 17.7869 32.0703 17.7395 32.4104 17.4035L33.8638 15.9676C34.2024 15.6331 34.2519 15.1061 33.9612 14.7227L32.8959 13.2869C33.1386 12.7599 33.1866 12.6163 33.3799 12.0909L35.1719 11.8511C35.6558 11.8037 35.9959 11.3729 35.9959 10.8933V8.83579C36.0439 8.30883 35.6573 7.92693 35.1719 7.87809ZM26.2569 13.4599C24.2192 13.4599 22.5441 11.805 22.5441 9.79187C22.5441 7.77873 24.2192 6.1238 26.2569 6.1238C28.2946 6.1238 29.9698 7.77873 29.9698 9.79187C29.9698 11.805 28.2946 13.4599 26.2569 13.4599Z" fill="#EE2326"/>
<path d="M14.9665 3.73768C15.1508 3.91975 15.2542 4.16547 15.2542 4.42304C15.2542 4.68061 15.1508 4.92631 14.9665 5.1084L11.4694 8.56331C11.0858 8.94225 10.4655 8.94225 10.082 8.56331C9.6984 8.18436 9.6984 7.57153 10.082 7.19259L11.9039 5.3926H7.41039C6.04243 5.3926 4.92765 6.49241 4.92765 7.8454V14.8782C4.92765 15.4141 4.48866 15.8478 3.94625 15.8478C3.40384 15.8478 2.96484 15.4141 2.96484 14.8782V7.8454C2.96484 5.42372 4.95911 3.45343 7.4089 3.45343H11.9024L10.0805 1.65493C9.6969 1.27598 9.6969 0.663152 10.0805 0.284208C10.464 -0.0947361 11.0844 -0.0947361 11.4679 0.284208L14.965 3.73764L14.9665 3.73768Z" fill="white"/>
<path d="M21.0321 32.2625C20.8478 32.0804 20.7444 31.8347 20.7444 31.5771C20.7444 31.3195 20.8478 31.0738 21.0321 30.8917L24.5292 27.4368C24.9127 27.0579 25.533 27.0579 25.9166 27.4368C26.3002 27.8158 26.3002 28.4286 25.9166 28.8075L24.0947 30.6075H28.5882C29.9562 30.6075 31.0709 29.5077 31.0709 28.1547V21.1219C31.0709 20.586 31.5099 20.1523 32.0523 20.1523C32.5947 20.1523 33.0337 20.586 33.0337 21.1219V28.1547C33.0337 30.5764 31.0395 32.5467 28.5897 32.5467H24.0961L25.9181 34.3452C26.3017 34.7242 26.3017 35.337 25.9181 35.7159C25.5345 36.0949 24.9142 36.0949 24.5307 35.7159L21.0336 32.2625L21.0321 32.2625Z" fill="#EE2326"/>
</svg>
