<svg width="20" height="20" viewBox="0 0 20 20" fill="none" xmlns="http://www.w3.org/2000/svg">
<path d="M13.3333 11.6668H14.5833V14.0168L16.6166 15.1918L15.9916 16.2752L13.3333 14.7418V11.6668ZM14.1666 10.0002C13.0615 10.0002 12.0017 10.4391 11.2203 11.2206C10.4389 12.002 9.99992 13.0618 9.99992 14.1668C9.99992 15.2719 10.4389 16.3317 11.2203 17.1131C12.0017 17.8945 13.0615 18.3335 14.1666 18.3335C15.2717 18.3335 16.3315 17.8945 17.1129 17.1131C17.8943 16.3317 18.3332 15.2719 18.3332 14.1668C18.3332 13.0618 17.8943 12.002 17.1129 11.2206C16.3315 10.4391 15.2717 10.0002 14.1666 10.0002ZM14.1666 8.3335C15.7137 8.3335 17.1974 8.94808 18.2914 10.042C19.3853 11.136 19.9999 12.6197 19.9999 14.1668C19.9999 15.7139 19.3853 17.1977 18.2914 18.2916C17.1974 19.3856 15.7137 20.0002 14.1666 20.0002C11.8416 20.0002 9.83325 18.6335 8.89158 16.6668H0.833252V14.1668C0.833252 11.9502 5.27492 10.8335 7.49992 10.8335C7.99992 10.8335 8.61658 10.8918 9.26658 11.0002C9.79503 10.1812 10.5205 9.50798 11.3766 9.04209C12.2327 8.5762 13.1919 8.33257 14.1666 8.3335ZM8.33325 14.1668C8.33325 13.5835 8.41658 13.0168 8.57492 12.5002C8.22492 12.4418 7.85825 12.4168 7.49992 12.4168C5.02492 12.4168 2.41659 13.6335 2.41659 14.1668V15.0835H8.40825C8.35916 14.7804 8.33409 14.4739 8.33325 14.1668ZM7.49992 3.3335C8.38397 3.3335 9.23182 3.68469 9.85694 4.30981C10.4821 4.93493 10.8333 5.78277 10.8333 6.66683C10.8333 7.55088 10.4821 8.39873 9.85694 9.02385C9.23182 9.64897 8.38397 10.0002 7.49992 10.0002C6.61586 10.0002 5.76802 9.64897 5.1429 9.02385C4.51777 8.39873 4.16658 7.55088 4.16658 6.66683C4.16658 5.78277 4.51777 4.93493 5.1429 4.30981C5.76802 3.68469 6.61586 3.3335 7.49992 3.3335ZM7.49992 4.91683C7.03579 4.91683 6.59067 5.1012 6.26248 5.42939C5.93429 5.75758 5.74992 6.2027 5.74992 6.66683C5.74992 7.13096 5.93429 7.57608 6.26248 7.90427C6.59067 8.23245 7.03579 8.41683 7.49992 8.41683C7.96405 8.41683 8.40917 8.23245 8.73735 7.90427C9.06554 7.57608 9.24992 7.13096 9.24992 6.66683C9.24992 6.2027 9.06554 5.75758 8.73735 5.42939C8.40917 5.1012 7.96405 4.91683 7.49992 4.91683Z" fill="#DA700E"/>
</svg>
