<svg width="36" height="36" viewBox="0 0 36 36" fill="none" xmlns="http://www.w3.org/2000/svg">
<path fill-rule="evenodd" clip-rule="evenodd" d="M3.65449 6.34817H12.1672L13.4198 4.17854H3.71953C2.29254 4.17854 1.125 5.34608 1.125 6.77314V24.6225C1.125 26.0496 2.29254 27.2171 3.71953 27.2171H12.6964V31.3393H8.74709C7.53012 31.3393 6.53449 32.1349 6.53449 33.1071V34.8749H29.4654V33.1071C29.4654 32.1347 28.4698 31.3393 27.2528 31.3393H23.3035V27.2171H32.2804C33.7074 27.2171 34.8749 26.0495 34.8749 24.6225V6.77307C34.8749 5.34608 33.7074 4.17847 32.2804 4.17847H22.5802L23.8328 6.3481H32.3455C32.5434 6.3481 32.7054 6.5101 32.7054 6.70796V22.8465H3.29463V6.70796C3.29463 6.5101 3.45656 6.34817 3.65449 6.34817Z" fill="white"/>
<path fill-rule="evenodd" clip-rule="evenodd" d="M26.0359 12.289L20.2773 2.31484C19.8039 1.49479 18.9468 1 17.9999 1C17.053 1 16.196 1.49479 15.7226 2.31484L9.964 12.289C9.49052 13.109 9.49052 14.0987 9.964 14.9186C10.4374 15.7387 11.2945 16.2335 12.2414 16.2335H23.7585C24.7054 16.2335 25.5624 15.7387 26.0358 14.9186C26.5093 14.0986 26.5093 13.109 26.0359 12.289ZM17.3304 5.00282C17.4651 4.86325 17.6319 4.7923 17.8259 4.7923H18.174C18.3679 4.7923 18.5348 4.86325 18.6695 5.00282C18.8041 5.14239 18.8689 5.31184 18.862 5.50555L18.688 10.3246C18.6812 10.5025 18.6058 10.671 18.4775 10.7945C18.3492 10.918 18.178 10.987 17.9999 10.987C17.8219 10.987 17.6507 10.918 17.5224 10.7945C17.3941 10.671 17.3187 10.5025 17.3119 10.3246L17.1379 5.50563C17.131 5.31177 17.1957 5.14246 17.3304 5.00282ZM17.9999 14.3264C17.5128 14.3264 17.118 13.9316 17.118 13.4445C17.118 12.9573 17.5129 12.5625 17.9999 12.5625C18.487 12.5625 18.8819 12.9574 18.8819 13.4445C18.8819 13.9316 18.487 14.3264 17.9999 14.3264Z" fill="#EE2326"/>
</svg>
