<svg width="24" height="24" viewBox="0 0 24 24" fill="none" xmlns="http://www.w3.org/2000/svg">
<path d="M21.8479 6.55336C20.6325 7.76873 18.662 7.76873 17.4466 6.55336C16.2312 5.33798 16.2312 3.36741 17.4466 2.15203L15.2946 0L0 15.2946L2.15208 17.4466C3.36745 16.2313 5.33803 16.2313 6.55341 17.4466C7.76878 18.662 7.76878 20.6326 6.55341 21.848L8.70544 24L24 8.70544L21.8479 6.55336ZM11.9775 8.57559L10.9791 7.57725L11.9735 6.58289L12.9718 7.58123L11.9775 8.57559ZM13.9741 10.5723L12.9757 9.57398L13.9701 8.57963L14.9685 9.57797L13.9741 10.5723ZM15.9708 12.5691L14.9725 11.5707L15.9668 10.5763L16.9652 11.5747L15.9708 12.5691Z" fill="#1B242C"/>
</svg>
