<svg width="20" height="20" viewBox="0 0 20 20" fill="none" xmlns="http://www.w3.org/2000/svg">
<circle cx="10" cy="10" r="10" fill="#3991E9"/>
<g clip-path="url(#clip0_51_3703)">
<path d="M12.8284 14.2426L10 11.4141L7.17157 14.2426C6.98404 14.4301 6.72968 14.5355 6.46447 14.5355C6.19925 14.5355 5.9449 14.4301 5.75736 14.2426C5.56982 14.055 5.46447 13.8007 5.46447 13.5355C5.46447 13.2702 5.56982 13.0159 5.75736 12.8284L8.58579 9.99993L5.75736 7.1715C5.56982 6.98397 5.46447 6.72961 5.46447 6.4644C5.46447 6.19918 5.56982 5.94483 5.75736 5.75729C5.9449 5.56975 6.19925 5.4644 6.46447 5.4644C6.72968 5.4644 6.98404 5.56975 7.17157 5.75729L10 8.58572L12.8284 5.75729C13.016 5.56975 13.2703 5.4644 13.5355 5.4644C13.8008 5.4644 14.0551 5.56975 14.2426 5.75729C14.4302 5.94483 14.5355 6.19918 14.5355 6.4644C14.5355 6.72961 14.4302 6.98397 14.2426 7.1715L11.4142 9.99993L14.2426 12.8284C14.4302 13.0159 14.5355 13.2702 14.5355 13.5355C14.5355 13.8007 14.4302 14.055 14.2426 14.2426C14.0551 14.4301 13.8008 14.5355 13.5355 14.5355C13.2703 14.5355 13.016 14.4301 12.8284 14.2426Z" fill="white"/>
</g>
<defs>
<clipPath id="clip0_51_3703">
<rect width="13.3333" height="13.3333" fill="white" transform="translate(3.33337 3.33325)"/>
</clipPath>
</defs>
</svg>
