<svg width="25" height="24" viewBox="0 0 25 24" fill="none" xmlns="http://www.w3.org/2000/svg">
<g clip-path="url(#clip0_1233_8916)">
<path d="M2.04031 9.1027C1.83191 8.87231 1.84977 8.51658 2.08016 8.30822L7.51925 3.38855C7.62247 3.29519 7.75663 3.24341 7.89581 3.24322C8.03499 3.24303 8.16929 3.29444 8.27277 3.38752L11.3613 6.16599L15.3633 2.16403H15.2128C14.9022 2.16403 14.6503 1.91217 14.6503 1.60153C14.6503 1.29089 14.9022 1.03903 15.2128 1.03903H16.7213C17.032 1.03903 17.2838 1.29089 17.2838 1.60153V3.10866C17.2838 3.4193 17.032 3.67116 16.7213 3.67116C16.4107 3.67116 16.1588 3.4193 16.1588 3.10866V2.95955L11.7795 7.3388C11.568 7.5503 11.228 7.55934 11.0056 7.35923L7.89758 4.56324L2.8348 9.1425C2.73154 9.23618 2.59706 9.28801 2.45764 9.28786C2.37899 9.28796 2.30119 9.27153 2.2293 9.23964C2.1574 9.20774 2.09302 9.16109 2.04031 9.1027ZM22.3635 17.6967H17.9445V13.2763C17.9445 13.2017 17.9149 13.1302 17.8621 13.0774C17.8094 13.0247 17.7378 12.9951 17.6632 12.9951C14.9157 12.9951 12.6803 15.2304 12.6803 17.978C12.6803 20.7255 14.9157 22.9609 17.6632 22.9609C20.4108 22.9609 22.6448 20.7255 22.6448 17.978C22.6448 17.9034 22.6152 17.8318 22.5624 17.7791C22.5097 17.7264 22.4381 17.6967 22.3635 17.6967ZM19.1435 11.5148C19.0689 11.5148 18.9973 11.5445 18.9446 11.5972C18.8918 11.65 18.8622 11.7215 18.8622 11.7961V16.4978C18.8622 16.5723 18.8918 16.6439 18.9446 16.6966C18.9973 16.7494 19.0689 16.779 19.1435 16.779H23.8438C23.9183 16.779 23.9899 16.7494 24.0426 16.6966C24.0954 16.6439 24.125 16.5723 24.125 16.4978C24.125 13.7502 21.8903 11.5148 19.1435 11.5148ZM14.3691 6.6517C14.2945 6.6517 14.223 6.68134 14.1702 6.73408C14.1175 6.78682 14.0878 6.85836 14.0878 6.93295V13.029C14.9254 12.4223 15.9221 12.0226 17.0026 11.9059V6.93295C17.0026 6.85836 16.9729 6.78682 16.9202 6.73408C16.8675 6.68134 16.7959 6.6517 16.7213 6.6517H14.3691ZM13.0316 14.0007V10.2768C13.0316 10.2022 13.0019 10.1307 12.9492 10.078C12.8964 10.0252 12.8249 9.99558 12.7503 9.99558H10.3981C10.3235 9.99558 10.252 10.0252 10.1993 10.078C10.1465 10.1307 10.1169 10.2022 10.1169 10.2768V17.4154H9.06059V8.53828C9.06059 8.46369 9.03096 8.39215 8.97822 8.33941C8.92547 8.28666 8.85394 8.25703 8.77934 8.25703H6.42711C6.35252 8.25703 6.28098 8.28666 6.22824 8.33941C6.17549 8.39215 6.14586 8.46369 6.14586 8.53828V17.4154H5.08958V12.0746C5.08958 12 5.05995 11.9284 5.0072 11.8757C4.95446 11.823 4.88292 11.7933 4.80833 11.7933H2.4575C2.38291 11.7933 2.31137 11.823 2.25863 11.8757C2.20588 11.9284 2.17625 12 2.17625 12.0746V17.4154H1.4375C1.12686 17.4154 0.875 17.6673 0.875 17.9779C0.875 18.2886 1.12686 18.5404 1.4375 18.5404H11.5814C11.5642 18.3534 11.5554 18.1657 11.5553 17.9779C11.5553 16.4602 12.1119 15.0701 13.0315 14.0007H13.0316Z" fill="url(#paint0_linear_1233_8916)"/>
</g>
<defs>
<linearGradient id="paint0_linear_1233_8916" x1="12.5" y1="1.03903" x2="12.5" y2="22.9609" gradientUnits="userSpaceOnUse">
<stop stop-color="#FF6164"/>
<stop offset="1" stop-color="#E10004"/>
</linearGradient>
<clipPath id="clip0_1233_8916">
<rect width="24" height="24" fill="white" transform="translate(0.5)"/>
</clipPath>
</defs>
</svg>
