<svg width="25" height="24" viewBox="0 0 25 24" fill="none" xmlns="http://www.w3.org/2000/svg">
<path d="M15.1249 12.0006C15.1249 12.5198 14.9709 13.0273 14.6825 13.459C14.3941 13.8907 13.9841 14.2271 13.5044 14.4258C13.0248 14.6245 12.497 14.6765 11.9878 14.5752C11.4786 14.4739 11.0109 14.2239 10.6437 13.8568C10.2766 13.4897 10.0266 13.022 9.92533 12.5128C9.82405 12.0036 9.87603 11.4758 10.0747 10.9961C10.2734 10.5164 10.6098 10.1065 11.0415 9.81804C11.4732 9.5296 11.9807 9.37564 12.4999 9.37564C13.1961 9.37564 13.8638 9.6522 14.3561 10.1445C14.8483 10.6368 15.1249 11.3045 15.1249 12.0006ZM22.6249 13.2156L22.5424 13.3356C21.4756 15.0453 19.9913 16.4552 18.2291 17.4327C16.467 18.4102 14.485 18.9232 12.4699 18.9232C10.4548 18.9232 8.47281 18.4102 6.71065 17.4327C4.9485 16.4552 3.46415 15.0453 2.3974 13.3356L2.3149 13.2156C2.09078 12.85 1.97217 12.4295 1.97217 12.0006C1.97217 11.5718 2.09078 11.1513 2.3149 10.7856L2.3974 10.6656C3.46415 8.95603 4.9485 7.54608 6.71065 6.56856C8.47281 5.59104 10.4548 5.07812 12.4699 5.07812C14.485 5.07812 16.467 5.59104 18.2291 6.56856C19.9913 7.54608 21.4756 8.95603 22.5424 10.6656L22.6249 10.7856C22.8535 11.1485 22.9774 11.5675 22.9827 11.9964C22.988 12.4253 22.8745 12.8472 22.6549 13.2156H22.6249ZM16.6249 12.0006C16.6249 11.1848 16.383 10.3873 15.9297 9.70892C15.4764 9.03056 14.8322 8.50185 14.0785 8.18964C13.3247 7.87743 12.4953 7.79574 11.6951 7.9549C10.895 8.11407 10.16 8.50694 9.58308 9.08383C9.00619 9.66072 8.61332 10.3957 8.45416 11.1959C8.29499 11.9961 8.37668 12.8255 8.68889 13.5792C9.0011 14.333 9.52982 14.9772 10.2082 15.4305C10.8865 15.8837 11.684 16.1256 12.4999 16.1256C13.5933 16.1237 14.6414 15.6884 15.4145 14.9153C16.1877 14.1421 16.6229 13.0941 16.6249 12.0006Z" fill="url(#paint0_linear_1233_8921)"/>
<defs>
<linearGradient id="paint0_linear_1233_8921" x1="6.5749" y1="17.9256" x2="18.4249" y2="6.07564" gradientUnits="userSpaceOnUse">
<stop stop-color="#6D03A8"/>
<stop offset="1" stop-color="#FD60C4"/>
</linearGradient>
</defs>
</svg>
