<svg width="20" height="18" viewBox="0 0 20 18" fill="none" xmlns="http://www.w3.org/2000/svg">
<path d="M16 0C15.2043 0 14.4413 0.316071 13.8787 0.87868C13.3161 1.44129 13 2.20435 13 3C13 3.79565 13.3161 4.55871 13.8787 5.12132C14.4413 5.68393 15.2043 6 16 6C16.7956 6 17.5587 5.68393 18.1213 5.12132C18.6839 4.55871 19 3.79565 19 3C19 2.20435 18.6839 1.44129 18.1213 0.87868C17.5587 0.316071 16.7956 0 16 0ZM11.457 10.206L12.676 8.433C12.7679 8.29935 12.8909 8.19006 13.0345 8.11455C13.178 8.03904 13.3378 7.99959 13.5 7.99959C13.6622 7.99959 13.822 8.03904 13.9655 8.11455C14.1091 8.19006 14.2321 8.29935 14.324 8.433L19.824 16.433C19.9274 16.5832 19.9877 16.7587 19.9985 16.9407C20.0093 17.1226 19.9702 17.3041 19.8854 17.4654C19.8005 17.6268 19.6732 17.7618 19.5172 17.8561C19.3611 17.9503 19.1823 18.0001 19 18H0.999998C0.826745 18.0001 0.656439 17.9552 0.50577 17.8696C0.355101 17.7841 0.229238 17.6609 0.140516 17.5121C0.0517934 17.3633 0.00325546 17.194 -0.000341375 17.0208C-0.00393821 16.8475 0.0375293 16.6764 0.119998 16.524L6.62 4.524C6.70568 4.36525 6.83272 4.23263 6.98764 4.1402C7.14256 4.04777 7.3196 3.99897 7.5 3.99897C7.6804 3.99897 7.85744 4.04777 8.01236 4.1402C8.16728 4.23263 8.29431 4.36525 8.38 4.524L11.457 10.206Z" fill="white"/>
</svg>
