<svg width="36" height="29" viewBox="0 0 36 29" fill="none" xmlns="http://www.w3.org/2000/svg">
<path d="M17.353 7.61082C17.7524 7.25645 17.9099 6.69957 17.7017 6.20457C17.5724 5.90645 17.4317 5.61395 17.2742 5.3327L17.0999 5.02895C16.9311 4.7477 16.7455 4.47207 16.5486 4.2077C16.228 3.7802 15.6655 3.63957 15.1592 3.80832L13.573 4.33145C12.9711 3.83645 12.2792 3.43145 11.5367 3.15582L11.1936 1.52457C11.0867 1.00145 10.6817 0.585195 10.153 0.52332C9.78174 0.472695 9.40486 0.450195 9.02236 0.450195H8.98299C8.60049 0.450195 8.22361 0.472695 7.85237 0.517695C7.32362 0.57957 6.91861 1.00145 6.81174 1.51895L6.46862 3.15582C5.72049 3.43707 5.03424 3.83645 4.43237 4.33145L2.84049 3.81395C2.33424 3.6452 1.77174 3.78582 1.45111 4.21332C1.25424 4.4777 1.06861 4.75332 0.89424 5.03457L0.72549 5.3327C0.56799 5.61395 0.427365 5.90645 0.29799 6.2102C0.0898647 6.69957 0.247365 7.25644 0.64674 7.61644L1.89549 8.7302C1.83361 9.10707 1.79986 9.50082 1.79986 9.9002C1.79986 10.2996 1.83361 10.6933 1.89549 11.0758L0.64674 12.1896C0.247365 12.5439 0.0898647 13.1008 0.29799 13.5958C0.427365 13.8939 0.56799 14.1864 0.72549 14.4733L0.89424 14.7658C1.06299 15.0527 1.24861 15.3227 1.45111 15.5871C1.77174 16.0146 2.33424 16.1552 2.84049 15.9864L4.42674 15.4633C5.02861 15.9583 5.72049 16.3633 6.46299 16.6389L6.80612 18.2758C6.91299 18.7989 7.31799 19.2152 7.84674 19.2771C8.22361 19.3221 8.60611 19.3446 8.99424 19.3446C9.57643 19.3446 9.76486 19.3221 10.1417 19.2771C10.6705 19.2152 11.0755 18.7933 11.1824 18.2758L11.5255 16.6389C12.2736 16.3577 12.9599 15.9583 13.5617 15.4633L15.148 15.9864C15.6542 16.1552 16.2167 16.0146 16.5374 15.5871C16.7342 15.3227 16.9199 15.0527 17.0886 14.7658L17.263 14.4621C17.4205 14.1808 17.5611 13.8883 17.6905 13.5902C17.8986 13.1008 17.7411 12.5439 17.3417 12.1839L16.093 11.0702C16.1549 10.6877 16.1886 10.2939 16.1886 9.89457C16.1886 9.49519 16.1549 9.10145 16.093 8.71895L17.3417 7.6052L17.353 7.61082ZM6.29987 9.9002C6.29987 9.18411 6.58433 8.49735 7.09068 7.99101C7.59702 7.48466 8.28378 7.2002 8.99986 7.2002C9.71595 7.2002 10.4027 7.48466 10.9091 7.99101C11.4154 8.49735 11.6999 9.18411 11.6999 9.9002C11.6999 10.6163 11.4154 11.303 10.9091 11.8094C10.4027 12.3157 9.71595 12.6002 8.99986 12.6002C8.28378 12.6002 7.59702 12.3157 7.09068 11.8094C6.58433 11.303 6.29987 10.6163 6.29987 9.9002Z" fill="white"/>
<path d="M35.1469 16.6108C35.5463 16.2564 35.7038 15.6996 35.4957 15.2046C35.3663 14.9064 35.2257 14.6139 35.0682 14.3327L34.8938 14.0289C34.7251 13.7477 34.5394 13.4721 34.3426 13.2077C34.0219 12.7802 33.4594 12.6396 32.9532 12.8083L31.3669 13.3314C30.7651 12.8364 30.0732 12.4314 29.3307 12.1558L28.9876 10.5246C28.8807 10.0014 28.4757 9.5852 27.9469 9.52332C27.5757 9.4727 27.1988 9.4502 26.8163 9.4502H26.7769C26.3944 9.4502 26.0176 9.4727 25.6463 9.5177C25.1176 9.57957 24.7126 10.0014 24.6057 10.5189L24.2626 12.1558C23.5144 12.4371 22.8282 12.8364 22.2263 13.3314L20.6344 12.8139C20.1282 12.6452 19.5657 12.7858 19.2451 13.2133C19.0482 13.4777 18.8626 13.7533 18.6882 14.0346L18.5194 14.3327C18.3619 14.6139 18.2213 14.9064 18.0919 15.2102C17.8838 15.6996 18.0413 16.2564 18.4407 16.6164L19.6894 17.7302C19.6276 18.1071 19.5938 18.5008 19.5938 18.9002C19.5938 19.2996 19.6276 19.6933 19.6894 20.0758L18.4407 21.1896C18.0413 21.5439 17.8838 22.1008 18.0919 22.5958C18.2213 22.8939 18.3619 23.1864 18.5194 23.4733L18.6882 23.7658C18.8569 24.0527 19.0426 24.3227 19.2451 24.5871C19.5657 25.0146 20.1282 25.1552 20.6344 24.9864L22.2207 24.4633C22.8226 24.9583 23.5144 25.3633 24.2569 25.6389L24.6001 27.2758C24.7069 27.7989 25.1119 28.2152 25.6407 28.2771C26.0176 28.3221 26.4001 28.3446 26.7882 28.3446C27.3704 28.3446 27.5588 28.3221 27.9357 28.2771C28.4644 28.2152 28.8694 27.7933 28.9763 27.2758L29.3194 25.6389C30.0676 25.3577 30.7538 24.9583 31.3557 24.4633L32.9419 24.9864C33.4482 25.1552 34.0107 25.0146 34.3313 24.5871C34.5282 24.3227 34.7138 24.0527 34.8826 23.7658L35.0569 23.4621C35.2144 23.1808 35.3551 22.8883 35.4844 22.5902C35.6926 22.1008 35.5351 21.5439 35.1357 21.1839L33.8869 20.0702C33.9488 19.6877 33.9826 19.2939 33.9826 18.8946C33.9826 18.4952 33.9488 18.1014 33.8869 17.7189L35.1357 16.6052L35.1469 16.6108ZM24.0938 18.9002C24.0938 18.1841 24.3783 17.4974 24.8846 16.991C25.391 16.4847 26.0777 16.2002 26.7938 16.2002C27.5099 16.2002 28.1967 16.4847 28.703 16.991C29.2093 17.4974 29.4938 18.1841 29.4938 18.9002C29.4938 19.6163 29.2093 20.303 28.703 20.8094C28.1967 21.3157 27.5099 21.6002 26.7938 21.6002C26.0777 21.6002 25.391 21.3157 24.8846 20.8094C24.3783 20.303 24.0938 19.6163 24.0938 18.9002Z" fill="#EE2326"/>
</svg>
