<svg width="36" height="36" viewBox="0 0 36 36" fill="none" xmlns="http://www.w3.org/2000/svg">
<path d="M24.5016 26.95C23.8336 26.95 23.1929 26.6919 22.7206 26.2324C22.2482 25.7729 21.9829 25.1498 21.9829 24.5C21.9829 23.8502 22.2482 23.2271 22.7206 22.7676C23.1929 22.3081 23.8336 22.05 24.5016 22.05C25.1696 22.05 25.8102 22.3081 26.2826 22.7676C26.755 23.2271 27.0203 23.8502 27.0203 24.5C27.0203 25.1498 26.755 25.7729 26.2826 26.2324C25.8102 26.6919 25.1696 26.95 24.5016 26.95ZM30.3896 25.5931C30.0547 25.3368 29.8989 24.9217 29.8989 24.5C29.8989 24.0654 30.0625 23.6392 30.4099 23.3781L31.3669 22.659C31.5037 22.554 31.5396 22.365 31.4533 22.211L30.014 19.789C29.9277 19.635 29.7334 19.572 29.575 19.635L28.4136 20.0887C28.0209 20.2421 27.5892 20.1789 27.2247 19.9668C26.8385 19.7421 26.5276 19.3751 26.4641 18.9328L26.3007 17.794C26.2861 17.7116 26.2419 17.6368 26.1761 17.583C26.1102 17.5292 26.0269 17.4998 25.9409 17.5H23.0623C22.8824 17.5 22.7313 17.626 22.7025 17.794L22.539 18.9328C22.4755 19.3751 22.1647 19.7421 21.7784 19.9668C21.4139 20.1789 20.9823 20.2421 20.5895 20.0887L19.4281 19.635C19.2698 19.572 19.0755 19.635 18.9892 19.789L17.5499 22.211C17.4563 22.365 17.4995 22.554 17.6363 22.659L18.5933 23.3781C18.9407 23.6392 19.1043 24.0654 19.1043 24.5C19.1043 24.9217 18.9485 25.3368 18.6136 25.5931L17.6363 26.341C17.4995 26.446 17.4563 26.635 17.5499 26.789L18.9892 29.211C19.0755 29.365 19.2698 29.421 19.4281 29.365L20.5827 28.9095C20.9788 28.7532 21.4163 28.8205 21.7839 29.0354C22.1673 29.2596 22.4753 29.6232 22.5384 30.0628L22.7025 31.206C22.7313 31.374 22.8824 31.5 23.0623 31.5H25.9409C26.1208 31.5 26.2719 31.374 26.3007 31.206L26.4656 30.0573C26.5283 29.6202 26.8325 29.2567 27.2146 29.0355C27.586 28.8206 28.0262 28.7539 28.4253 28.9114L29.575 29.365C29.7334 29.421 29.9277 29.365 30.014 29.211L31.4533 26.789C31.5396 26.635 31.5037 26.446 31.3669 26.341L30.3896 25.5931Z" fill="#EE2326"/>
<path fill-rule="evenodd" clip-rule="evenodd" d="M4 2C4 0.895431 4.89543 0 6 0H29C30.1046 0 31 0.895431 31 2V17.1515C29.0942 15.2067 26.438 14 23.5 14C17.701 14 13 18.701 13 24.5C13 27.438 14.2067 30.0942 16.1515 32H6C4.89543 32 4 31.1046 4 30V2ZM25.375 6.85714C24.7537 6.85714 24.25 7.36082 24.25 7.98214V8.01786C24.25 8.63918 24.7537 9.14286 25.375 9.14286C25.9963 9.14286 26.5 8.63918 26.5 8.01786V7.98214C26.5 7.36082 25.9963 6.85714 25.375 6.85714ZM9.64286 6.85714C9.01167 6.85714 8.5 7.36882 8.5 8C8.5 8.63118 9.01167 9.14286 9.64286 9.14286H20.8571C21.4883 9.14286 22 8.63118 22 8C22 7.36882 21.4883 6.85714 20.8571 6.85714H9.64286Z" fill="white"/>
</svg>
