<svg width="36" height="36" viewBox="0 0 36 36" fill="none" xmlns="http://www.w3.org/2000/svg">
<path fill-rule="evenodd" clip-rule="evenodd" d="M9.3999 1.7998C7.19076 1.7998 5.3999 3.59067 5.3999 5.7998V30.1998C5.3999 32.4089 7.19076 34.1998 9.3999 34.1998H19.6191C16.8318 32.312 15 29.1199 15 25.5C15 19.701 19.701 15 25.5 15C27.3509 15 29.0899 15.4789 30.5999 16.3195V5.7998C30.5999 3.59067 28.809 1.7998 26.5999 1.7998H9.3999ZM13.5999 24.2998C13.5999 24.7969 13.197 25.1998 12.6999 25.1998H11.6999C11.2028 25.1998 10.7999 24.7969 10.7999 24.2998C10.7999 23.8027 11.2028 23.3998 11.6999 23.3998H12.6999C13.197 23.3998 13.5999 23.8027 13.5999 24.2998ZM15.1999 18.8998C15.1999 19.3969 14.797 19.7998 14.2999 19.7998H11.6999C11.2028 19.7998 10.7999 19.3969 10.7999 18.8998C10.7999 18.4027 11.2028 17.9998 11.6999 17.9998H14.2999C14.797 17.9998 15.1999 18.4027 15.1999 18.8998ZM25.1999 13.4998C25.1999 13.9969 24.797 14.3998 24.2999 14.3998H11.6999C11.2028 14.3998 10.7999 13.9969 10.7999 13.4998C10.7999 13.0027 11.2028 12.5998 11.6999 12.5998H24.2999C24.797 12.5998 25.1999 13.0027 25.1999 13.4998ZM25.1999 8.0998C25.1999 8.59686 24.797 8.9998 24.2999 8.9998H11.6999C11.2028 8.9998 10.7999 8.59686 10.7999 8.0998C10.7999 7.60275 11.2028 7.1998 11.6999 7.1998H24.2999C24.797 7.1998 25.1999 7.60275 25.1999 8.0998Z" fill="white"/>
<path d="M30.7897 29.4464L33.3462 32.0023C33.7174 32.3734 33.7175 32.9751 33.3463 33.3463C32.9751 33.7175 32.3734 33.7174 32.0022 33.3462L29.4464 30.7897C28.241 31.7057 26.7669 32.2022 25.2497 32.2M30.7897 29.4464L32.2 25.2497C32.1998 21.4134 29.0864 18.3 25.25 18.3C21.4135 18.3 18.3 21.4135 18.3 25.25C18.3 29.0864 21.4134 32.1998 25.2497 32.2M30.7897 29.4464C30.7536 29.4939 30.7168 29.5411 30.6793 29.5878L30.5233 29.4628M30.7897 29.4464L30.6647 29.3213L30.5233 29.4628M30.7897 29.4464C31.7056 28.2411 32.2021 26.7671 32.2 25.25L30.7897 29.4464ZM25.2497 32.2L25.25 32M25.2497 32.2C25.2498 32.2 25.2499 32.2 25.25 32.2V32M25.25 32C26.7815 32.0022 28.2678 31.4812 29.4628 30.5233M25.25 32C21.524 32 18.5 28.976 18.5 25.25C18.5 21.524 21.524 18.5 25.25 18.5L29.4628 30.5233M29.4628 30.5233L32.1437 33.2048C32.4367 33.4979 32.9118 33.4979 33.2049 33.2049C33.4979 32.9118 33.4979 32.4367 33.2048 32.1437L30.5233 29.4628M29.4628 30.5233L30.5233 29.4628M30.3 25.25V25.2503C30.3018 26.5629 29.791 27.8244 28.8763 28.7659L28.7659 28.8763C27.8244 29.791 26.5629 30.3018 25.2503 30.3H25.25C22.4602 30.3 20.2 28.0398 20.2 25.25C20.2 22.4602 22.4602 20.2 25.25 20.2C28.0398 20.2 30.3 22.4602 30.3 25.25Z" fill="#EE2326" stroke="#EE2326" stroke-width="0.4"/>
</svg>
