<svg width="18" height="20" viewBox="0 0 18 20" fill="none" xmlns="http://www.w3.org/2000/svg">
<path d="M16.2223 0.416016H1.77783C1.44631 0.416016 1.12837 0.547712 0.893949 0.782132C0.659528 1.01655 0.527832 1.33449 0.527832 1.66602V18.3327C0.527832 18.6642 0.659528 18.9821 0.893949 19.2166C1.12837 19.451 1.44631 19.5827 1.77783 19.5827H16.2223C16.5538 19.5827 16.8717 19.451 17.1062 19.2166C17.3406 18.9821 17.4723 18.6642 17.4723 18.3327V1.66602C17.4723 1.33449 17.3406 1.01655 17.1062 0.782132C16.8717 0.547712 16.5538 0.416016 16.2223 0.416016ZM1.91672 1.8049H3.86117V18.1938H1.91672V1.8049ZM16.0834 18.1938H5.25005V1.8049H16.0834V18.1938ZM9.97228 14.3049V9.02713H9.55561C9.37143 9.02713 9.1948 8.95396 9.06456 8.82373C8.93433 8.69349 8.86117 8.51686 8.86117 8.33268C8.86117 8.1485 8.93433 7.97187 9.06456 7.84163C9.1948 7.7114 9.37143 7.63824 9.55561 7.63824H10.6667C10.8509 7.63824 11.0275 7.7114 11.1578 7.84163C11.288 7.97187 11.3612 8.1485 11.3612 8.33268V14.3049H11.7778C11.962 14.3049 12.1386 14.3781 12.2689 14.5083C12.3991 14.6385 12.4723 14.8152 12.4723 14.9993C12.4723 15.1835 12.3991 15.3602 12.2689 15.4904C12.1386 15.6206 11.962 15.6938 11.7778 15.6938H9.55561C9.37143 15.6938 9.1948 15.6206 9.06456 15.4904C8.93433 15.3602 8.86117 15.1835 8.86117 14.9993C8.86117 14.8152 8.93433 14.6385 9.06456 14.5083C9.1948 14.3781 9.37143 14.3049 9.55561 14.3049H9.97228ZM9.41672 5.5549C9.41672 5.30768 9.49003 5.066 9.62739 4.86044C9.76474 4.65488 9.95996 4.49466 10.1884 4.40005C10.4168 4.30544 10.6681 4.28069 10.9106 4.32892C11.1531 4.37715 11.3758 4.4962 11.5506 4.67102C11.7254 4.84584 11.8445 5.06856 11.8927 5.31104C11.9409 5.55352 11.9162 5.80485 11.8216 6.03326C11.727 6.26167 11.5667 6.45689 11.3612 6.59424C11.1556 6.73159 10.9139 6.8049 10.6667 6.8049C10.3352 6.8049 10.0173 6.67321 9.78284 6.43879C9.54842 6.20437 9.41672 5.88642 9.41672 5.5549Z" fill="url(#paint0_linear_51_3692)"/>
<path d="M9.97244 9.02691V14.3047H9.55577C9.3716 14.3047 9.19496 14.3779 9.06473 14.5081C8.93449 14.6383 8.86133 14.815 8.86133 14.9991C8.86133 15.1833 8.93449 15.3599 9.06473 15.4902C9.19496 15.6204 9.3716 15.6936 9.55577 15.6936H11.778C11.9622 15.6936 12.1388 15.6204 12.269 15.4902C12.3993 15.3599 12.4724 15.1833 12.4724 14.9991C12.4724 14.815 12.3993 14.6383 12.269 14.5081C12.1388 14.3779 11.9622 14.3047 11.778 14.3047H11.3613V8.33247C11.3613 8.14829 11.2882 7.97165 11.1579 7.84142C11.0277 7.71119 10.8511 7.63802 10.6669 7.63802H9.55577C9.3716 7.63802 9.19496 7.71119 9.06473 7.84142C8.93449 7.97165 8.86133 8.14829 8.86133 8.33247C8.86133 8.51664 8.93449 8.69328 9.06473 8.82351C9.19496 8.95375 9.3716 9.02691 9.55577 9.02691H9.97244Z" fill="url(#paint1_linear_51_3692)"/>
<path d="M9.62755 4.86022C9.4902 5.06579 9.41688 5.30746 9.41688 5.55469C9.41688 5.88621 9.54858 6.20415 9.783 6.43857C10.0174 6.67299 10.3354 6.80469 10.6669 6.80469C10.9141 6.80469 11.1558 6.73138 11.3613 6.59402C11.5669 6.45667 11.7271 6.26145 11.8217 6.03304C11.9163 5.80463 11.9411 5.5533 11.8929 5.31082C11.8446 5.06835 11.7256 4.84562 11.5508 4.6708C11.376 4.49599 11.1532 4.37694 10.9107 4.32871C10.6683 4.28047 10.4169 4.30523 10.1885 4.39984C9.96012 4.49445 9.7649 4.65466 9.62755 4.86022Z" fill="url(#paint2_linear_51_3692)"/>
<defs>
<linearGradient id="paint0_linear_51_3692" x1="9.00006" y1="0.416016" x2="9.00006" y2="19.5827" gradientUnits="userSpaceOnUse">
<stop stop-color="#57BCFF"/>
<stop offset="1" stop-color="#0081D6"/>
</linearGradient>
<linearGradient id="paint1_linear_51_3692" x1="10.6669" y1="4.30469" x2="10.6669" y2="15.6936" gradientUnits="userSpaceOnUse">
<stop stop-color="#57BCFF"/>
<stop offset="1" stop-color="#0081D6"/>
</linearGradient>
<linearGradient id="paint2_linear_51_3692" x1="10.6669" y1="4.30469" x2="10.6669" y2="15.6936" gradientUnits="userSpaceOnUse">
<stop stop-color="#57BCFF"/>
<stop offset="1" stop-color="#0081D6"/>
</linearGradient>
</defs>
</svg>
