<svg width="12" height="12" viewBox="0 0 12 12" fill="none" xmlns="http://www.w3.org/2000/svg">
<path d="M11.2505 0.5H5.7505C5.55159 0.5 5.36083 0.579018 5.22017 0.71967C5.07952 0.860322 5.0005 1.05109 5.0005 1.25C5.0005 1.44891 5.07952 1.63968 5.22017 1.78033C5.36083 1.92098 5.55159 2 5.7505 2H11.2505C11.4494 2 11.6402 1.92098 11.7808 1.78033C11.9215 1.63968 12.0005 1.44891 12.0005 1.25C12.0005 1.05109 11.9215 0.860322 11.7808 0.71967C11.6402 0.579018 11.4494 0.5 11.2505 0.5ZM9.2505 3.5H5.7505C5.55159 3.5 5.36083 3.57902 5.22017 3.71967C5.07952 3.86032 5.0005 4.05109 5.0005 4.25C5.0005 4.44891 5.07952 4.63968 5.22017 4.78033C5.36083 4.92098 5.55159 5 5.7505 5H9.2505C9.44942 5 9.64018 4.92098 9.78083 4.78033C9.92149 4.63968 10.0005 4.44891 10.0005 4.25C10.0005 4.05109 9.92149 3.86032 9.78083 3.71967C9.64018 3.57902 9.44942 3.5 9.2505 3.5ZM7.2505 6.5H5.7505C5.55159 6.5 5.36083 6.57902 5.22017 6.71967C5.07952 6.86032 5.0005 7.05109 5.0005 7.25C5.0005 7.44891 5.07952 7.63968 5.22017 7.78033C5.36083 7.92098 5.55159 8 5.7505 8H7.2505C7.44942 8 7.64018 7.92098 7.78083 7.78033C7.92149 7.63968 8.0005 7.44891 8.0005 7.25C8.0005 7.05109 7.92149 6.86032 7.78083 6.71967C7.64018 6.57902 7.44942 6.5 7.2505 6.5ZM4.5865 9.207H3.5005V0.75C3.5005 0.651509 3.4811 0.553982 3.44341 0.462987C3.40572 0.371993 3.35048 0.289314 3.28083 0.21967C3.21119 0.150026 3.12851 0.0947814 3.03752 0.0570903C2.94652 0.0193993 2.849 0 2.7505 0C2.65201 0 2.55449 0.0193993 2.46349 0.0570903C2.3725 0.0947814 2.28982 0.150026 2.22017 0.21967C2.15053 0.289314 2.09529 0.371993 2.05759 0.462987C2.0199 0.553982 2.0005 0.651509 2.0005 0.75V9.207H1.0005C0.901629 9.20702 0.80498 9.23636 0.722775 9.2913C0.64057 9.34624 0.5765 9.42432 0.538665 9.51567C0.50083 9.60702 0.490928 9.70754 0.510212 9.80452C0.529496 9.90149 0.577099 9.99057 0.647004 10.0605L2.44 11.8535C2.53377 11.9472 2.66092 11.9999 2.7935 11.9999C2.92609 11.9999 3.05324 11.9472 3.147 11.8535L4.94 10.0605C5.00991 9.99057 5.05751 9.90149 5.0768 9.80452C5.09608 9.70754 5.08618 9.60702 5.04834 9.51567C5.01051 9.42432 4.94644 9.34624 4.86423 9.2913C4.78203 9.23636 4.68538 9.20702 4.5865 9.207Z" fill="#4A545E"/>
</svg>
