<svg width="20" height="20" viewBox="0 0 20 20" fill="none" xmlns="http://www.w3.org/2000/svg">
<path d="M13.2987 9.60907L9.14578 6.5902C9.07117 6.53581 8.98297 6.50312 8.89093 6.49574C8.7989 6.48836 8.70661 6.50659 8.62429 6.54841C8.54197 6.59022 8.47282 6.65399 8.4245 6.73267C8.37617 6.81134 8.35055 6.90185 8.35047 6.99418V13.0299C8.35018 13.1224 8.3756 13.2131 8.42387 13.292C8.47215 13.3709 8.54138 13.4348 8.62386 13.4766C8.70634 13.5184 8.79881 13.5365 8.89097 13.5289C8.98312 13.5212 9.07134 13.4881 9.14578 13.4332L13.2987 10.417C13.3629 10.371 13.4152 10.3104 13.4512 10.2401C13.4873 10.1699 13.5061 10.092 13.5061 10.013C13.5061 9.93408 13.4873 9.85625 13.4512 9.786C13.4152 9.71575 13.3629 9.6551 13.2987 9.60907Z" fill="url(#paint0_linear_51_3698)"/>
<path d="M10.0003 0.00195312C4.47639 0.00195312 0 4.47834 0 10.0023C0 15.5242 4.47639 19.9993 10.0003 19.9993C15.5229 19.9993 20 15.5236 20 10.0023C20.0007 4.47834 15.5229 0.00195312 10.0003 0.00195312ZM10.0003 18.3308C5.40015 18.3308 1.67049 14.6031 1.67049 10.0023C1.67049 5.40344 5.40015 1.67112 10.0003 1.67112C14.5998 1.67112 18.3288 5.40277 18.3288 10.0023C18.3295 14.6031 14.5998 18.3308 10.0003 18.3308Z" fill="url(#paint1_linear_51_3698)"/>
<defs>
<linearGradient id="paint0_linear_51_3698" x1="10.9283" y1="6.49414" x2="10.9283" y2="13.5306" gradientUnits="userSpaceOnUse">
<stop stop-color="#FF6164"/>
<stop offset="1" stop-color="#E10004"/>
</linearGradient>
<linearGradient id="paint1_linear_51_3698" x1="10" y1="0.00195312" x2="10" y2="19.9993" gradientUnits="userSpaceOnUse">
<stop stop-color="#FF6164"/>
<stop offset="1" stop-color="#E10004"/>
</linearGradient>
</defs>
</svg>
